<?xml version="1.0" encoding="UTF-8" standalone="no"?>
<!-- Created with Inkscape (http://www.inkscape.org/) -->
<svg
   xmlns:dc="http://purl.org/dc/elements/1.1/"
   xmlns:cc="http://creativecommons.org/ns#"
   xmlns:rdf="http://www.w3.org/1999/02/22-rdf-syntax-ns#"
   xmlns:svg="http://www.w3.org/2000/svg"
   xmlns="http://www.w3.org/2000/svg"
   xmlns:xlink="http://www.w3.org/1999/xlink"
   xmlns:sodipodi="http://sodipodi.sourceforge.net/DTD/sodipodi-0.dtd"
   xmlns:inkscape="http://www.inkscape.org/namespaces/inkscape"
   width="360.35712"
   height="842.5"
   id="svg3705"
   sodipodi:version="0.32"
   inkscape:version="0.46+devel"
   sodipodi:docname="boiler1.svg"
   inkscape:output_extension="org.inkscape.output.svg.inkscape"
   version="1.0">
  <defs
     id="defs3707">
    <linearGradient
       id="linearGradient2687">
      <stop
         style="stop-color:#333333;stop-opacity:1"
         offset="0"
         id="stop2689" />
      <stop
         id="stop2695"
         offset="0.5"
         style="stop-color:#cccccc;stop-opacity:1" />
      <stop
         style="stop-color:#cccccc;stop-opacity:1"
         offset="1"
         id="stop2691" />
    </linearGradient>
    <linearGradient
       id="linearGradient4510"
       inkscape:collect="always">
      <stop
         id="stop4512"
         offset="0"
         style="stop-color:#000000;stop-opacity:0.04137255" />
      <stop
         id="stop4514"
         offset="1"
         style="stop-color:#000000;stop-opacity:1" />
    </linearGradient>
    <linearGradient
       id="linearGradient4494">
      <stop
         style="stop-color:#002255;stop-opacity:1"
         offset="0"
         id="stop4496" />
      <stop
         id="stop4498"
         offset="0.21090426"
         style="stop-color:#0066ff;stop-opacity:1" />
      <stop
         style="stop-color:#0055d4;stop-opacity:1"
         offset="0.40660343"
         id="stop4500" />
      <stop
         id="stop4502"
         offset="0.57195425"
         style="stop-color:#0066ff;stop-opacity:1" />
      <stop
         style="stop-color:#0055d4;stop-opacity:1"
         offset="0.69057381"
         id="stop4504" />
      <stop
         id="stop4506"
         offset="0.91235662"
         style="stop-color:#002255;stop-opacity:1" />
      <stop
         style="stop-color:#003380;stop-opacity:1"
         offset="1"
         id="stop4508" />
    </linearGradient>
    <linearGradient
       id="linearGradient4451">
      <stop
         id="stop4453"
         offset="0"
         style="stop-color:#002255;stop-opacity:1" />
      <stop
         style="stop-color:#0066ff;stop-opacity:1"
         offset="0.21090426"
         id="stop4455" />
      <stop
         id="stop4457"
         offset="0.40660343"
         style="stop-color:#0055d4;stop-opacity:1" />
      <stop
         style="stop-color:#0066ff;stop-opacity:1"
         offset="0.57195425"
         id="stop4459" />
      <stop
         id="stop4461"
         offset="0.69057381"
         style="stop-color:#0055d4;stop-opacity:1" />
      <stop
         style="stop-color:#00112b;stop-opacity:1"
         offset="0.91235662"
         id="stop4463" />
      <stop
         id="stop4465"
         offset="1"
         style="stop-color:#003380;stop-opacity:1" />
    </linearGradient>
    <linearGradient
       id="linearGradient4412">
      <stop
         style="stop-color:#002255;stop-opacity:1"
         offset="0"
         id="stop4414" />
      <stop
         id="stop4420"
         offset="0.1526226"
         style="stop-color:#0066ff;stop-opacity:1" />
      <stop
         style="stop-color:#0055d4;stop-opacity:1"
         offset="0.34225273"
         id="stop4422" />
      <stop
         id="stop4424"
         offset="0.57195425"
         style="stop-color:#0066ff;stop-opacity:1" />
      <stop
         style="stop-color:#0055d4;stop-opacity:1"
         offset="0.69057381"
         id="stop4426" />
      <stop
         id="stop4428"
         offset="0.88168204"
         style="stop-color:#00112b;stop-opacity:1" />
      <stop
         style="stop-color:#003380;stop-opacity:1"
         offset="1"
         id="stop4416" />
    </linearGradient>
    <linearGradient
       id="linearGradient4494-1">
      <stop
         style="stop-color:#002255;stop-opacity:1"
         offset="0"
         id="stop4496-6" />
      <stop
         id="stop4498-8"
         offset="0.21090426"
         style="stop-color:#0066ff;stop-opacity:1" />
      <stop
         style="stop-color:#0055d4;stop-opacity:1"
         offset="0.40660343"
         id="stop4500-8" />
      <stop
         id="stop4502-2"
         offset="0.57195425"
         style="stop-color:#0066ff;stop-opacity:1" />
      <stop
         style="stop-color:#0055d4;stop-opacity:1"
         offset="0.69057381"
         id="stop4504-7" />
      <stop
         id="stop4506-7"
         offset="0.91235662"
         style="stop-color:#002255;stop-opacity:1" />
      <stop
         style="stop-color:#003380;stop-opacity:1"
         offset="1"
         id="stop4508-1" />
    </linearGradient>
    <linearGradient
       inkscape:collect="always"
       xlink:href="#linearGradient4494"
       id="linearGradient2584"
       gradientUnits="userSpaceOnUse"
       x1="285"
       y1="190.21933"
       x2="475"
       y2="188.07646" />
    <linearGradient
       inkscape:collect="always"
       xlink:href="#linearGradient4494"
       id="linearGradient2586"
       gradientUnits="userSpaceOnUse"
       x1="320.21835"
       y1="235.14877"
       x2="440"
       y2="235.14877" />
    <linearGradient
       inkscape:collect="always"
       xlink:href="#linearGradient2687"
       id="linearGradient2588"
       gradientUnits="userSpaceOnUse"
       gradientTransform="translate(-1010,0)"
       x1="490"
       y1="192.36218"
       x2="520"
       y2="192.36218" />
    <linearGradient
       inkscape:collect="always"
       xlink:href="#linearGradient4494"
       id="linearGradient2590"
       gradientUnits="userSpaceOnUse"
       x1="500"
       y1="262.36218"
       x2="510"
       y2="262.36218" />
    <linearGradient
       inkscape:collect="always"
       xlink:href="#linearGradient4494"
       id="linearGradient2592"
       gradientUnits="userSpaceOnUse"
       x1="210"
       y1="232.36218"
       x2="240"
       y2="232.36218" />
    <linearGradient
       inkscape:collect="always"
       xlink:href="#linearGradient4494"
       id="linearGradient2594"
       gradientUnits="userSpaceOnUse"
       gradientTransform="translate(-9.90625,5.0000026)"
       x1="229.90625"
       y1="257.36218"
       x2="239.90625"
       y2="257.36218" />
    <linearGradient
       inkscape:collect="always"
       xlink:href="#linearGradient4494-1"
       id="linearGradient2596"
       gradientUnits="userSpaceOnUse"
       gradientTransform="translate(51.531254,-15.012816)"
       x1="210"
       y1="232.36218"
       x2="240"
       y2="232.36218" />
    <linearGradient
       inkscape:collect="always"
       xlink:href="#linearGradient4494-1"
       id="linearGradient2598"
       gradientUnits="userSpaceOnUse"
       gradientTransform="translate(41.625004,-10.012816)"
       x1="229.90625"
       y1="257.36218"
       x2="239.90625"
       y2="257.36218" />
    <linearGradient
       inkscape:collect="always"
       xlink:href="#linearGradient4451"
       id="linearGradient2600"
       gradientUnits="userSpaceOnUse"
       x1="118.85647"
       y1="296.76807"
       x2="649.59479"
       y2="302.6557" />
    <radialGradient
       inkscape:collect="always"
       xlink:href="#linearGradient4510"
       id="radialGradient2602"
       gradientUnits="userSpaceOnUse"
       gradientTransform="matrix(1.2313637e-7,-0.3729992,1.8696748,3.136526e-6,-279.18992,475.87469)"
       cx="448.91879"
       cy="352.47159"
       fx="448.91879"
       fy="352.47159"
       r="180" />
    <linearGradient
       inkscape:collect="always"
       xlink:href="#linearGradient4412"
       id="linearGradient2604"
       gradientUnits="userSpaceOnUse"
       x1="200"
       y1="612.36218"
       x2="560"
       y2="612.36218" />
    <linearGradient
       inkscape:collect="always"
       xlink:href="#linearGradient4412"
       id="linearGradient2579"
       gradientUnits="userSpaceOnUse"
       x1="200"
       y1="612.36218"
       x2="560"
       y2="612.36218" />
    <radialGradient
       inkscape:collect="always"
       xlink:href="#linearGradient4510"
       id="radialGradient2582"
       gradientUnits="userSpaceOnUse"
       gradientTransform="matrix(1.2313637e-7,-0.3729992,1.8696748,3.136526e-6,-279.18992,475.87469)"
       cx="448.91879"
       cy="352.47159"
       fx="448.91879"
       fy="352.47159"
       r="180" />
    <linearGradient
       inkscape:collect="always"
       xlink:href="#linearGradient4451"
       id="linearGradient2585"
       gradientUnits="userSpaceOnUse"
       x1="118.85647"
       y1="296.76807"
       x2="649.59479"
       y2="302.6557" />
    <linearGradient
       inkscape:collect="always"
       xlink:href="#linearGradient4494"
       id="linearGradient2593"
       gradientUnits="userSpaceOnUse"
       gradientTransform="translate(-9.90625,5.0000026)"
       x1="229.90625"
       y1="257.36218"
       x2="239.90625"
       y2="257.36218" />
    <linearGradient
       inkscape:collect="always"
       xlink:href="#linearGradient4494"
       id="linearGradient2597"
       gradientUnits="userSpaceOnUse"
       x1="210"
       y1="232.36218"
       x2="240"
       y2="232.36218" />
    <linearGradient
       inkscape:collect="always"
       xlink:href="#linearGradient4494"
       id="linearGradient2601"
       gradientUnits="userSpaceOnUse"
       x1="500"
       y1="262.36218"
       x2="510"
       y2="262.36218" />
    <linearGradient
       inkscape:collect="always"
       xlink:href="#linearGradient2687"
       id="linearGradient2605"
       gradientUnits="userSpaceOnUse"
       gradientTransform="translate(-1010,0)"
       x1="490"
       y1="192.36218"
       x2="520"
       y2="192.36218" />
    <linearGradient
       inkscape:collect="always"
       xlink:href="#linearGradient4494"
       id="linearGradient2608"
       gradientUnits="userSpaceOnUse"
       x1="320.21835"
       y1="235.14877"
       x2="440"
       y2="235.14877" />
    <linearGradient
       inkscape:collect="always"
       xlink:href="#linearGradient4494"
       id="linearGradient2612"
       gradientUnits="userSpaceOnUse"
       x1="285"
       y1="190.21933"
       x2="475"
       y2="188.07646" />
  </defs>
  <sodipodi:namedview
     id="base"
     pagecolor="#ffffff"
     bordercolor="#666666"
     borderopacity="1.0"
     gridtolerance="10000"
     guidetolerance="10"
     objecttolerance="10"
     inkscape:pageopacity="0.0"
     inkscape:pageshadow="2"
     inkscape:zoom="0.62789318"
     inkscape:cx="180.17856"
     inkscape:cy="421.25"
     inkscape:document-units="px"
     inkscape:current-layer="layer1"
     showgrid="true"
     showguides="true"
     inkscape:guide-bbox="true"
     inkscape:window-width="1280"
     inkscape:window-height="744"
     inkscape:window-x="-4"
     inkscape:window-y="-4"
     inkscape:snap-global="true">
    <inkscape:grid
       type="xygrid"
       id="grid3715"
       empspacing="5"
       visible="true"
       enabled="false" />
  </sodipodi:namedview>
  <metadata
     id="metadata3710">
    <rdf:RDF>
      <cc:Work
         rdf:about="">
        <dc:format>image/svg+xml</dc:format>
        <dc:type
           rdf:resource="http://purl.org/dc/dcmitype/StillImage" />
        <dc:title>boiler1</dc:title>
        <dc:date>2010-01-19</dc:date>
        <dc:publisher>
          <cc:Agent>
            <dc:title>Ecava</dc:title>
          </cc:Agent>
        </dc:publisher>
      </cc:Work>
    </rdf:RDF>
  </metadata>
  <g
     inkscape:label="Layer 1"
     inkscape:groupmode="layer"
     id="layer1"
     transform="translate(-199.64287,-92.362176)">
    <g
       id="g2616"
       inkscape:label="{&quot;attr&quot;:&quot;clone&quot;,&quot;map&quot;:[&quot;%s=tagName&quot;]}">
      <path
         id="path3742"
         d="m 380,154.375 c -50.57433,0 -91.96307,12.38705 -94.84375,28 l -0.15625,0 0,1.75 0,8.25 3.75,0 c 11.44335,12.40611 47.96449,21.5 91.25,21.5 43.28551,0 79.80665,-9.09389 91.25,-21.5 l 3.75,0 0,-8.25 0,-1.75 -0.15625,0 c -2.88068,-15.61295 -44.26942,-28 -94.84375,-28 z"
         style="fill:url(#linearGradient2612);fill-opacity:1;fill-rule:nonzero;stroke:none" />
      <path
         sodipodi:type="arc"
         style="fill:#00112b;fill-opacity:1;fill-rule:nonzero;stroke:none"
         id="path3739"
         sodipodi:cx="380"
         sodipodi:cy="197.36218"
         sodipodi:rx="68.571434"
         sodipodi:ry="15.612252"
         d="m 448.57143,197.36218 a 68.571434,15.612252 0 1 1 -137.14286,0 68.571434,15.612252 0 1 1 137.14286,0 z"
         transform="matrix(1.385416,0,0,1.9055549,-146.45813,-183.97229)" />
      <path
         id="rect3735"
         d="m 379.8125,177.375 c -33.12,0 -60,6.72 -60,15 0,0.37239 0.08064,0.72815 0.1875,1.09375 l 0,88.90625 120,0 0,-90 -0.1875,0 c 0,-8.28 -26.88,-15 -60,-15 z"
         style="fill:url(#linearGradient2608);fill-opacity:1;fill-rule:nonzero;stroke:none" />
      <rect
         transform="scale(-1,1)"
         y="142.36218"
         x="-520"
         height="90"
         width="30"
         id="rect4295"
         style="fill:url(#linearGradient2605);fill-opacity:1;fill-rule:nonzero;stroke:none" />
      <path
         d="m 520,232.36218 a 15,5 0 1 1 -30,0 15,5 0 1 1 30,0 z"
         sodipodi:ry="5"
         sodipodi:rx="15"
         sodipodi:cy="232.36218"
         sodipodi:cx="505"
         id="path4301"
         style="fill:#00112b;fill-opacity:1;fill-rule:nonzero;stroke:none"
         sodipodi:type="arc" />
      <path
         id="rect4289"
         d="m 505,230.375 c -2.43529,0 -4.4622,0.84683 -4.90625,2 l -0.09375,0 0,0.5 0,59.5 10,0 0,-59.5 0,-0.5 -0.09375,0 c -0.44405,-1.15317 -2.47096,-2 -4.90625,-2 z"
         style="fill:url(#linearGradient2601);fill-opacity:1;fill-rule:nonzero;stroke:none" />
      <path
         id="rect4295-9-5"
         d="M 223.46875,227.375 C 215.90796,227.6312 210,229.7875 210,232.375 l 0,5 30,0 0,-5 c 0,-2.76 -6.72,-5 -15,-5 -0.5175,0 -1.0272,-0.01708 -1.53125,0 z"
         style="fill:url(#linearGradient2597);fill-opacity:1;fill-rule:nonzero;stroke:none" />
      <path
         d="m 520,232.36218 a 15,5 0 1 1 -30,0 15,5 0 1 1 30,0 z"
         sodipodi:ry="5"
         sodipodi:rx="15"
         sodipodi:cy="232.36218"
         sodipodi:cx="505"
         id="path4301-2-2"
         style="fill:#000000;fill-opacity:1;fill-rule:nonzero;stroke:none"
         sodipodi:type="arc"
         transform="translate(-279.90625,5.0000026)" />
      <path
         id="rect4289-0-7"
         d="m 225.09375,235.36218 c -2.43529,0 -4.4622,0.84683 -4.90625,2 l -0.09375,0 0,0.5 0,59.5 10,0 0,-59.5 0,-0.5 -0.09375,0 c -0.44405,-1.15317 -2.47096,-2 -4.90625,-2 z"
         style="fill:url(#linearGradient2593);fill-opacity:1;fill-rule:nonzero;stroke:none" />
      <g
         id="g2682">
        <path
           style="fill:url(#linearGradient2596);fill-opacity:1;fill-rule:nonzero;stroke:none"
           d="m 275,212.36218 c -7.56079,0.2562 -13.46875,2.4125 -13.46875,5 l 0,5 30,0 0,-5 c 0,-2.76 -6.72,-5 -15,-5 -0.5175,0 -1.0272,-0.01708 -1.53125,0 z"
           id="rect4295-9-5-0" />
        <path
           transform="translate(-228.375,-10.012816)"
           sodipodi:type="arc"
           style="fill:#000000;fill-opacity:1;fill-rule:nonzero;stroke:none"
           id="path4301-2-2-4"
           sodipodi:cx="505"
           sodipodi:cy="232.36218"
           sodipodi:rx="15"
           sodipodi:ry="5"
           d="m 520,232.36218 a 15,5 0 1 1 -30,0 15,5 0 1 1 30,0 z" />
        <path
           style="fill:url(#linearGradient2598);fill-opacity:1;fill-rule:nonzero;stroke:none"
           d="m 276.625,220.34936 c -2.43529,0 -4.4622,0.84683 -4.90625,2 l -0.09375,0 0,0.5 0,59.5 10,0 0,-59.5 0,-0.5 -0.09375,0 c -0.44405,-1.15317 -2.47096,-2 -4.90625,-2 z"
           id="rect4289-0-7-9" />
      </g>
      <rect
         rx="180"
         ry="80"
         y="252.36218"
         x="200"
         height="160"
         width="360"
         id="rect3733"
         style="fill:url(#linearGradient2585);fill-opacity:1;fill-rule:nonzero;stroke:none" />
      <rect
         style="opacity:0.92035403;fill:url(#radialGradient2582);fill-opacity:1;fill-rule:nonzero;stroke:none"
         id="rect4488"
         width="360"
         height="160"
         x="199.64287"
         y="252.36217"
         ry="80"
         rx="180" />
      <path
         id="rect3725"
         d="m 379.81736,312.36218 c -99.36,0 -180,12.32 -180,27.5 l 0,560 c 0,19.32 80.64,35 180,35 99.36,0 180,-15.68 180,-35 l 0,-560 c 0,-15.18 -80.64,-27.5 -180,-27.5 z"
         style="fill:url(#linearGradient2579);fill-opacity:1;fill-rule:nonzero;stroke:none" />
      <rect
         y="162.36218"
         x="376"
         height="42"
         width="8"
         id="rect3747"
         style="fill:#2c5aa0;fill-opacity:1;fill-rule:nonzero;stroke:none" />
      <path
         id="path3749"
         d="m 440,192.36218 0,25 35,-25 -35,0 z"
         style="fill:#2c5aa0;stroke:none" />
      <path
         id="path4260"
         d="m 320,192.36218 -35,0 35,25 0,-25 z"
         style="fill:#003380;fill-opacity:1;stroke:none" />
      <path
         id="path4262"
         d="m 350,207.36218 -20,-40 20,12 0,28 z"
         style="fill:#2c5aa0;fill-opacity:1;stroke:none" />
      <path
         id="path4262-0"
         d="m 410,207.36218 20,-40 -20,12 0,28 z"
         style="fill:#5f8dd3;stroke:none" />
      <path
         id="path4285"
         d="m 350,207.36218 -5,0 -20,-40 5,0 20,40"
         style="fill:#003380;stroke:none" />
      <path
         id="path4287"
         d="m 410,207.36218 5,0 20,-40 -5,0 -20,40 z"
         style="fill:#002255;stroke:none" />
      <path
         transform="matrix(0.6666667,0,0,0.6666667,176.66665,130.78739)"
         d="m 530,2.3621826 a 60,60 0 1 1 -120,0 60,60 0 1 1 120,0 z"
         sodipodi:ry="60"
         sodipodi:rx="60"
         sodipodi:cy="2.3621826"
         sodipodi:cx="470"
         id="path4293"
         style="fill:#000000;fill-opacity:1;fill-rule:nonzero;stroke:none"
         sodipodi:type="arc" />
      <path
         sodipodi:type="arc"
         style="fill:#e6e6e6;fill-opacity:1;fill-rule:nonzero;stroke:none"
         id="path4306"
         sodipodi:cx="470"
         sodipodi:cy="2.3621826"
         sodipodi:rx="60"
         sodipodi:ry="60"
         d="m 530,2.3621826 a 60,60 0 1 1 -120,0 60,60 0 1 1 120,0 z"
         transform="matrix(0.5,0,0,0.5000001,255.00001,131.18109)" />
      <path
         sodipodi:nodetypes="cccc"
         id="path2697"
         d="m 494,129.36218 -6,7 -18,-24 24,17 z"
         style="fill:#000000;stroke:#000000;stroke-width:1px;stroke-linecap:butt;stroke-linejoin:miter;stroke-opacity:1" />
    </g>
  </g>
</svg>
