<?xml version="1.0" encoding="UTF-8" standalone="no"?>
<!-- Created with Inkscape (http://www.inkscape.org/) -->
<svg
   xmlns:dc="http://purl.org/dc/elements/1.1/"
   xmlns:cc="http://creativecommons.org/ns#"
   xmlns:rdf="http://www.w3.org/1999/02/22-rdf-syntax-ns#"
   xmlns:svg="http://www.w3.org/2000/svg"
   xmlns="http://www.w3.org/2000/svg"
   xmlns:xlink="http://www.w3.org/1999/xlink"
   xmlns:sodipodi="http://sodipodi.sourceforge.net/DTD/sodipodi-0.dtd"
   xmlns:inkscape="http://www.inkscape.org/namespaces/inkscape"
   width="53.211628"
   height="69.706665"
   id="svg9259"
   sodipodi:version="0.32"
   inkscape:version="0.46+devel"
   version="1.0"
   sodipodi:docname="pump4.svg"
   inkscape:output_extension="org.inkscape.output.svg.inkscape">
  <defs
     id="defs9261">
    <filter
       inkscape:collect="always"
       id="filter4859"
       x="-0.11333876"
       width="1.2266775"
       y="-0.083262376"
       height="1.1665248">
      <feGaussianBlur
         inkscape:collect="always"
         stdDeviation="1.5956805"
         id="feGaussianBlur4861" />
    </filter>
    <linearGradient
       inkscape:collect="always"
       xlink:href="#linearGradient3534"
       id="linearGradient4839"
       gradientUnits="userSpaceOnUse"
       gradientTransform="matrix(1,0,0,1.0067798,307.33183,-91.863043)"
       x1="531.19543"
       y1="284.76157"
       x2="584.09741"
       y2="284.76157" />
    <linearGradient
       inkscape:collect="always"
       id="linearGradient3534">
      <stop
         style="stop-color:#000000;stop-opacity:1;"
         offset="0"
         id="stop3536" />
      <stop
         style="stop-color:#000000;stop-opacity:0;"
         offset="1"
         id="stop3539" />
    </linearGradient>
    <radialGradient
       inkscape:collect="always"
       xlink:href="#linearGradient5046"
       id="radialGradient4841"
       gradientUnits="userSpaceOnUse"
       gradientTransform="matrix(-0.4686523,-6.6185073e-8,1.6704839e-7,-1.2398704,1219.0887,615.33419)"
       cx="639.36969"
       cy="276.43442"
       fx="639.36969"
       fy="276.43442"
       r="57.8125" />
    <linearGradient
       id="linearGradient5046"
       inkscape:collect="always">
      <stop
         id="stop5048"
         offset="0"
         style="stop-color:#000000;stop-opacity:1;" />
      <stop
         id="stop5050"
         offset="1"
         style="stop-color:#000000;stop-opacity:0;" />
    </linearGradient>
    <linearGradient
       inkscape:collect="always"
       xlink:href="#linearGradient5056"
       id="linearGradient4843"
       gradientUnits="userSpaceOnUse"
       gradientTransform="translate(-4.8278809e-5,0)"
       x1="970.36298"
       y1="313.28851"
       x2="925.30701"
       y2="313.28851" />
    <linearGradient
       inkscape:collect="always"
       id="linearGradient5056">
      <stop
         style="stop-color:#000000;stop-opacity:1;"
         offset="0"
         id="stop5058" />
      <stop
         style="stop-color:#000000;stop-opacity:0;"
         offset="1"
         id="stop5060" />
    </linearGradient>
    <linearGradient
       inkscape:collect="always"
       xlink:href="#linearGradient3522"
       id="linearGradient4845"
       gradientUnits="userSpaceOnUse"
       gradientTransform="translate(-6.3122559e-5,0)"
       x1="935.547"
       y1="-153.54451"
       x2="886.39496"
       y2="-153.54451" />
    <linearGradient
       inkscape:collect="always"
       id="linearGradient3522">
      <stop
         style="stop-color:#000000;stop-opacity:1;"
         offset="0"
         id="stop3525" />
      <stop
         style="stop-color:#000000;stop-opacity:0;"
         offset="1"
         id="stop3527" />
    </linearGradient>
    <radialGradient
       inkscape:collect="always"
       xlink:href="#linearGradient4885"
       id="radialGradient4847"
       gradientUnits="userSpaceOnUse"
       gradientTransform="matrix(0.9506254,1.4508608e-6,2.4181219e-6,-1.5843887,27.836881,600.15284)"
       cx="934.17279"
       cy="247.16299"
       fx="934.17279"
       fy="247.16299"
       r="17.573483" />
    <linearGradient
       id="linearGradient4885"
       inkscape:collect="always">
      <stop
         id="stop4887"
         offset="0"
         style="stop-color:#ffffff;stop-opacity:1" />
      <stop
         id="stop4889"
         offset="1"
         style="stop-color:#ffffff;stop-opacity:0" />
    </linearGradient>
    <linearGradient
       inkscape:collect="always"
       xlink:href="#linearGradient4895"
       id="linearGradient4849"
       gradientUnits="userSpaceOnUse"
       gradientTransform="matrix(-1,0,0,1,1857.1842,0.132066)"
       x1="885.61206"
       y1="258.53763"
       x2="927.37683"
       y2="258.53763" />
    <linearGradient
       inkscape:collect="always"
       id="linearGradient4895">
      <stop
         style="stop-color:#000000;stop-opacity:1"
         offset="0"
         id="stop4897" />
      <stop
         style="stop-color:#000000;stop-opacity:0"
         offset="1"
         id="stop4899" />
    </linearGradient>
    <radialGradient
       inkscape:collect="always"
       xlink:href="#linearGradient4928"
       id="radialGradient4851"
       gradientUnits="userSpaceOnUse"
       gradientTransform="matrix(0.3786566,0.4868438,0.8669011,-0.6742567,390.97777,160.29347)"
       cx="527.71368"
       cy="342.49588"
       fx="527.71368"
       fy="342.49588"
       r="57.8125" />
    <linearGradient
       inkscape:collect="always"
       id="linearGradient4928">
      <stop
         style="stop-color:#ffffff;stop-opacity:1"
         offset="0"
         id="stop4930" />
      <stop
         style="stop-color:#ffffff;stop-opacity:0"
         offset="1"
         id="stop4932" />
    </linearGradient>
  </defs>
  <sodipodi:namedview
     id="base"
     pagecolor="#ffffff"
     bordercolor="#666666"
     borderopacity="1.0"
     gridtolerance="10000"
     guidetolerance="10"
     objecttolerance="10"
     inkscape:pageopacity="0.0"
     inkscape:pageshadow="2"
     inkscape:zoom="7.5889443"
     inkscape:cx="26.605814"
     inkscape:cy="34.853333"
     inkscape:document-units="px"
     inkscape:current-layer="layer1"
     showgrid="false"
     showguides="true"
     inkscape:guide-bbox="true"
     inkscape:window-width="1280"
     inkscape:window-height="744"
     inkscape:window-x="-4"
     inkscape:window-y="-4">
    <inkscape:grid
       type="xygrid"
       id="grid9269"
       empspacing="5"
       visible="true"
       enabled="true" />
  </sodipodi:namedview>
  <metadata
     id="metadata9264">
    <rdf:RDF>
      <cc:Work
         rdf:about="">
        <dc:format>image/svg+xml</dc:format>
        <dc:type
           rdf:resource="http://purl.org/dc/dcmitype/StillImage" />
        <dc:title>pump3</dc:title>
        <dc:date>2010-01-19</dc:date>
        <dc:publisher>
          <cc:Agent>
            <dc:title>Ecava</dc:title>
          </cc:Agent>
        </dc:publisher>
      </cc:Work>
    </rdf:RDF>
  </metadata>
  <g
     inkscape:label="Layer 1"
     inkscape:groupmode="layer"
     id="layer1"
     transform="translate(-497.76498,-291.04636)">
    <g
       style="display:inline"
       id="g4791"
       inkscape:label="{&quot;attr&quot;:&quot;clone&quot;,&quot;map&quot;:[&quot;%s=tagName&quot;]}"
       transform="translate(241.89261,-503.55061)">
      <path
         inkscape:label=""
         id="path4857"
         d="m 259.952,798.89765 0,3.01115 2.6204,0 0,25.43388 c -0.0303,0.46409 -0.0575,0.93044 -0.0575,1.40214 0,9.56959 6.3397,17.6642 15.04426,20.31953 l 0,8.14849 -2.6204,0 0,3.01116 18.0669,0 0,-3.01116 -2.6318,0 0,-8.28641 c 8.49,-2.78306 14.6305,-10.76493 14.6305,-20.18161 0,-11.72648 -9.5126,-21.23896 -21.239,-21.23896 -2.9721,0 -5.809,0.60868 -8.3784,1.71245 l 0,-7.30951 2.6433,0 0,-3.01115 -18.07826,0 z"
         style="fill:#000000;fill-opacity:1;stroke:#000000;stroke-width:0.5;stroke-linecap:square;stroke-miterlimit:4;stroke-opacity:1;stroke-dasharray:none;filter:url(#filter4859)" />
      <path
         inkscape:label="{&quot;attr&quot;:&quot;color&quot;,&quot;map&quot;:[&quot;0=lime&quot;,&quot;1=red&quot;],&quot;tag&quot;:&quot;%s&quot;}"
         id="path4683"
         d="m 258.04811,794.84697 0,3.01115 2.62039,0 0,25.43388 c -0.03033,0.46409 -0.05747,0.93044 -0.05747,1.40214 0,9.56959 6.33969,17.6642 15.04423,20.31953 l 0,8.14849 -2.6204,0 0,3.01116 18.0669,0 0,-3.01116 -2.6318,0 0,-8.28641 c 8.49,-2.78306 14.6305,-10.76493 14.6305,-20.18161 0,-11.72648 -9.5125,-21.23896 -21.239,-21.23896 -2.9721,0 -5.809,0.60868 -8.3783,1.71245 l 0,-7.30951 2.6433,0 0,-3.01115 -18.07835,0 z"
         style="fill:#00ff00;fill-opacity:1;stroke:#000000;stroke-width:0.5;stroke-linecap:square;stroke-miterlimit:4;stroke-opacity:1;stroke-dasharray:none" />
      <path
         sodipodi:type="arc"
         style="fill:#ffffff;fill-opacity:1;fill-rule:nonzero;stroke:#000000;stroke-width:0.24298304;stroke-miterlimit:4;stroke-opacity:1;stroke-dasharray:none"
         id="path4854"
         sodipodi:cx="535.552"
         sodipodi:cy="250.944"
         sodipodi:rx="7.1680002"
         sodipodi:ry="7.1680002"
         d="m 542.72,250.944 c 0,3.95674 -3.21126,7.168 -7.168,7.168 -3.95673,0 -7.168,-3.21126 -7.168,-7.168 0,-3.95674 3.21127,-7.168 7.168,-7.168 3.95674,0 7.168,3.21126 7.168,7.168 z"
         transform="matrix(2.0577566,0,0,2.0577566,-820.27625,308.47545)"
         inkscape:label="{&quot;attr&quot;:&quot;color&quot;,&quot;map&quot;:[&quot;0=white&quot;,&quot;1=red/white&quot;],&quot;tag&quot;:&quot;%s&quot;}" />
      <g
         style="fill:#000000;fill-opacity:1;display:inline"
         id="g4687"
         transform="matrix(0.6458129,0,0,-0.6458129,-373.84961,970.34647)"
         inkscape:label="{&quot;attr&quot;:&quot;opac&quot;,&quot;max&quot;:&quot;0&quot;,&quot;min&quot;:&quot;1&quot;,&quot;tag&quot;:&quot;%s&quot;}">
        <path
           style="opacity:1;fill:#000000;fill-opacity:1;fill-rule:nonzero;stroke:none"
           d="m 1015.1687,194.31221 c 0.7479,4.52545 1.1875,9.79643 1.1875,15.46875 0,5.67232 -0.4396,10.97455 -1.1875,15.5 3.2205,-2.20712 5.5312,-8.31381 5.5312,-15.5 0,-7.1829 -2.313,-13.25907 -5.5312,-15.46875 z"
           id="path4689"
           inkscape:transform-center-x="-2.765625"
           inkscape:transform-center-y="-15.484375" />
        <path
           inkscape:transform-center-y="-13.40986"
           inkscape:transform-center-x="-8.135151"
           id="path4691"
           d="m 1030.6531,198.46124 c -1.615,4.29312 -3.8698,9.0777 -6.706,13.99008 -2.8361,4.91237 -5.8679,9.28446 -8.7784,12.82964 3.8926,-0.30118 8.9471,-4.43435 12.5402,-10.65777 3.5914,-6.22057 4.6264,-12.63922 2.9442,-16.16195 z"
           style="opacity:1;fill:#000000;fill-opacity:1;fill-rule:nonzero;stroke:none" />
        <path
           style="opacity:1;fill:#000000;fill-opacity:1;fill-rule:nonzero;stroke:none"
           d="m 1041.9884,209.79659 c -3.5452,2.91046 -7.8902,5.92661 -12.8026,8.76278 -4.9123,2.83616 -9.724,5.1066 -14.0171,6.72159 3.5217,1.68547 9.9656,0.6333 16.189,-2.9598 6.2206,-3.59145 10.3262,-8.6327 10.6307,-12.52457 z"
           id="path4693"
           inkscape:transform-center-x="-13.40986"
           inkscape:transform-center-y="-7.3501352" />
        <path
           inkscape:transform-center-y="2.765625"
           inkscape:transform-center-x="-15.48437"
           id="path4695"
           d="m 1046.1374,225.28096 c -4.5254,0.74794 -9.7964,1.1875 -15.4687,1.18751 -5.6723,-1e-05 -10.9746,-0.43957 -15.5,-1.18751 2.2071,3.22049 8.3138,5.53125 15.5,5.53125 7.1829,0 13.2591,-2.31306 15.4687,-5.53125 z"
           style="opacity:1;fill:#000000;fill-opacity:1;fill-rule:nonzero;stroke:none" />
        <path
           style="opacity:1;fill:#000000;fill-opacity:1;fill-rule:nonzero;stroke:none"
           d="m 1041.9884,240.76533 c -4.2931,-1.61498 -9.0777,-3.8698 -13.9901,-6.70596 -4.9123,-2.83616 -9.2844,-5.86795 -12.8296,-8.77841 0.3012,3.89259 4.4343,8.94711 10.6578,12.5402 6.2205,3.59145 12.6392,4.62637 16.1619,2.94417 z"
           id="path4697"
           inkscape:transform-center-x="-13.40986"
           inkscape:transform-center-y="8.135151" />
        <path
           inkscape:transform-center-y="13.40986"
           inkscape:transform-center-x="-7.3501352"
           id="path4699"
           d="m 1030.6531,252.10068 c -2.9105,-3.54518 -5.9266,-7.89019 -8.7628,-12.80257 -2.8362,-4.91238 -5.1066,-9.72403 -6.7216,-14.01715 -1.6855,3.52167 -0.6333,9.9656 2.9598,16.18902 3.5914,6.22057 8.6327,10.32616 12.5246,10.6307 z"
           style="opacity:1;fill:#000000;fill-opacity:1;fill-rule:nonzero;stroke:none" />
        <path
           style="opacity:1;fill:#000000;fill-opacity:1;fill-rule:nonzero;stroke:none"
           d="m 1015.1687,256.2497 c -0.7479,-4.52544 -1.1875,-9.79641 -1.1875,-15.46874 0,-5.67232 0.4396,-10.97455 1.1875,-15.5 -3.2205,2.20712 -5.5313,8.31381 -5.5313,15.5 0,7.1829 2.3131,13.25907 5.5313,15.46874 z"
           id="path4701"
           inkscape:transform-center-x="2.765625"
           inkscape:transform-center-y="15.48437" />
        <path
           inkscape:transform-center-y="13.40986"
           inkscape:transform-center-x="8.135151"
           id="path4703"
           d="m 999.68433,252.10068 c 1.61497,-4.29312 3.86977,-9.07769 6.70597,-13.99008 2.8361,-4.91237 5.8679,-9.28446 8.7784,-12.82964 -3.8926,0.30118 -8.9471,4.43435 -12.5402,10.65777 -3.59145,6.22057 -4.62637,12.63922 -2.94417,16.16195 z"
           style="opacity:1;fill:#000000;fill-opacity:1;fill-rule:nonzero;stroke:none" />
        <path
           style="opacity:1;fill:#000000;fill-opacity:1;fill-rule:nonzero;stroke:none"
           d="m 988.34898,240.76533 c 3.54518,-2.91046 7.89019,-5.92661 12.80252,-8.76278 4.9124,-2.83616 9.7241,-5.1066 14.0172,-6.72159 -3.5217,-1.68547 -9.9656,-0.6333 -16.18902,2.9598 -6.22057,3.59145 -10.32616,8.6327 -10.6307,12.52457 z"
           id="path4705"
           inkscape:transform-center-x="13.40986"
           inkscape:transform-center-y="7.3501352" />
        <path
           inkscape:transform-center-y="-2.765625"
           inkscape:transform-center-x="15.48437"
           id="path4707"
           d="m 984.19996,225.28096 c 4.52544,-0.74794 9.79641,-1.1875 15.46874,-1.18751 5.6723,1e-05 10.9745,0.43957 15.5,1.18751 -2.2071,-3.22049 -8.3138,-5.53125 -15.5,-5.53125 -7.1829,0 -13.25907,2.31306 -15.46874,5.53125 z"
           style="opacity:1;fill:#000000;fill-opacity:1;fill-rule:nonzero;stroke:none" />
        <path
           style="opacity:1;fill:#000000;fill-opacity:1;fill-rule:nonzero;stroke:none"
           d="m 988.34898,209.79659 c 4.29312,1.61498 9.07769,3.8698 13.99012,6.70596 4.9123,2.83616 9.2844,5.86795 12.8296,8.77841 -0.3012,-3.89259 -4.4344,-8.94711 -10.6578,-12.5402 -6.22054,-3.59145 -12.63919,-4.62637 -16.16192,-2.94417 z"
           id="path4709"
           inkscape:transform-center-x="13.40986"
           inkscape:transform-center-y="-8.135151" />
        <path
           inkscape:transform-center-y="-13.40986"
           inkscape:transform-center-x="7.3501352"
           id="path4711"
           d="m 999.68433,198.46124 c 2.91047,3.54518 5.92657,7.89019 8.76277,12.80257 2.8362,4.91238 5.1066,9.72403 6.7216,14.01715 1.6855,-3.52167 0.6333,-9.9656 -2.9598,-16.18902 -3.5915,-6.22057 -8.6327,-10.32616 -12.52457,-10.6307 z"
           style="opacity:1;fill:#000000;fill-opacity:1;fill-rule:nonzero;stroke:none" />
      </g>
      <g
         id="g4713"
         inkscape:label="{&quot;attr&quot;:&quot;opac&quot;,&quot;max&quot;:&quot;1&quot;,&quot;min&quot;:&quot;0&quot;,&quot;tag&quot;:&quot;%s&quot;},{&quot;attr&quot;:&quot;rotate&quot;,&quot;max&quot;:&quot;59&quot;,&quot;min&quot;:&quot;0&quot;,&quot;tag&quot;:&quot;app.currentTime.second&quot;}"
         transform="translate(-730.99424,593.53757)"
         style="fill:#000000;fill-opacity:1">
        <path
           style="fill:#000000;fill-opacity:1;fill-rule:nonzero;stroke:none"
           d="m 1013.0389,251.38311 c 0.483,-2.9226 0.7669,-6.32666 0.7669,-9.98992 0,-3.66326 -0.2839,-7.08751 -0.7669,-10.0101 2.0798,1.42539 3.5721,5.36917 3.5721,10.0101 0,4.63881 -1.4938,8.56288 -3.5721,9.98992 z"
           id="path4715"
           inkscape:transform-center-x="-2.765625"
           inkscape:transform-center-y="-15.484375" />
        <path
           inkscape:transform-center-y="-13.40986"
           inkscape:transform-center-x="-8.135151"
           id="path4717"
           d="m 1023.0389,248.70361 c -1.043,-2.77255 -2.4992,-5.86249 -4.3308,-9.03497 -1.8316,-3.17247 -3.7896,-5.99603 -5.6692,-8.28555 2.5139,0.19451 5.7781,2.86376 8.0986,6.88293 2.3194,4.01732 2.9878,8.16257 1.9014,10.43759 z"
           style="fill:#000000;fill-opacity:1;fill-rule:nonzero;stroke:none" />
        <path
           style="fill:#000000;fill-opacity:1;fill-rule:nonzero;stroke:none"
           d="m 1030.3594,241.3831 c -2.2896,-1.87962 -5.0956,-3.82749 -8.2681,-5.65912 -3.1724,-1.83163 -6.2799,-3.29791 -9.0524,-4.34089 2.2743,-1.0885 6.4359,-0.40899 10.455,1.91148 4.0174,2.3194 6.6688,5.57511 6.8655,8.08853 z"
           id="path4719"
           inkscape:transform-center-x="-13.40986"
           inkscape:transform-center-y="-7.3501352" />
        <path
           inkscape:transform-center-y="2.765625"
           inkscape:transform-center-x="-15.48437"
           id="path4721"
           d="m 1033.0389,231.38309 c -2.9226,-0.48303 -6.3267,-0.7669 -9.9899,-0.76691 -3.6633,1e-05 -7.0876,0.28388 -10.0101,0.76691 1.4253,-2.07983 5.3691,-3.57215 10.0101,-3.57215 4.6388,0 8.5629,1.4938 9.9899,3.57215 z"
           style="fill:#000000;fill-opacity:1;fill-rule:nonzero;stroke:none" />
        <path
           style="fill:#000000;fill-opacity:1;fill-rule:nonzero;stroke:none"
           d="m 1030.3594,221.38308 c -2.7726,1.04298 -5.8625,2.49917 -9.035,4.3308 -3.1724,1.83163 -5.996,3.7896 -8.2855,5.66921 0.1945,-2.51388 2.8637,-5.77816 6.8829,-8.09862 4.0173,-2.31941 8.1626,-2.98777 10.4376,-1.90139 z"
           id="path4723"
           inkscape:transform-center-x="-13.40986"
           inkscape:transform-center-y="8.135151" />
        <path
           inkscape:transform-center-y="13.40986"
           inkscape:transform-center-x="-7.3501352"
           id="path4725"
           d="m 1023.0389,214.06257 c -1.8796,2.28952 -3.8275,5.09559 -5.6591,8.26806 -1.8317,3.17248 -3.2979,6.27991 -4.3409,9.05246 -1.0885,-2.27434 -0.409,-6.43591 1.9114,-10.45508 2.3194,-4.01732 5.5752,-6.66877 8.0886,-6.86544 z"
           style="fill:#000000;fill-opacity:1;fill-rule:nonzero;stroke:none" />
        <path
           style="fill:#000000;fill-opacity:1;fill-rule:nonzero;stroke:none"
           d="m 1013.0389,211.38308 c -0.483,2.92259 -0.7669,6.32665 -0.7669,9.98991 0,3.66326 0.2839,7.08751 0.7669,10.0101 -2.0799,-1.42539 -3.5722,-5.36917 -3.5722,-10.0101 0,-4.63881 1.4938,-8.56288 3.5722,-9.98991 z"
           id="path4727"
           inkscape:transform-center-x="2.765625"
           inkscape:transform-center-y="15.48437" />
        <path
           inkscape:transform-center-y="13.40986"
           inkscape:transform-center-x="8.135151"
           id="path4729"
           d="m 1003.0389,214.06257 c 1.0429,2.77255 2.4991,5.86249 4.3308,9.03497 1.8316,3.17247 3.7895,5.99603 5.6692,8.28555 -2.5139,-0.19451 -5.7782,-2.86376 -8.0987,-6.88293 -2.3194,-4.01732 -2.9877,-8.16257 -1.9013,-10.43759 z"
           style="fill:#000000;fill-opacity:1;fill-rule:nonzero;stroke:none" />
        <path
           style="fill:#000000;fill-opacity:1;fill-rule:nonzero;stroke:none"
           d="m 995.71835,221.38308 c 2.28952,1.87962 5.09555,3.82749 8.26805,5.65912 3.1725,1.83163 6.2799,3.29791 9.0525,4.34089 -2.2744,1.0885 -6.4359,0.40899 -10.4551,-1.91148 -4.01733,-2.3194 -6.66877,-5.57511 -6.86545,-8.08853 z"
           id="path4731"
           inkscape:transform-center-x="13.40986"
           inkscape:transform-center-y="7.3501352" />
        <path
           inkscape:transform-center-y="-2.765625"
           inkscape:transform-center-x="15.48437"
           id="path4733"
           d="m 993.03886,231.38309 c 2.92259,0.48303 6.32665,0.7669 9.98994,0.76691 3.6632,-1e-05 7.0874,-0.28388 10.0101,-0.76691 -1.4254,2.07983 -5.3692,3.57215 -10.0101,3.57215 -4.63884,0 -8.56291,-1.4938 -9.98994,-3.57215 z"
           style="fill:#000000;fill-opacity:1;fill-rule:nonzero;stroke:none" />
        <path
           style="fill:#000000;fill-opacity:1;fill-rule:nonzero;stroke:none"
           d="m 995.71835,241.3831 c 2.77255,-1.04298 5.86245,-2.49917 9.03505,-4.3308 3.1724,-1.83163 5.9959,-3.7896 8.2855,-5.66921 -0.1945,2.51388 -2.8638,5.77816 -6.883,8.09862 -4.0173,2.31941 -8.16252,2.98777 -10.43755,1.90139 z"
           id="path4735"
           inkscape:transform-center-x="13.40986"
           inkscape:transform-center-y="-8.135151" />
        <path
           inkscape:transform-center-y="-13.40986"
           inkscape:transform-center-x="7.3501352"
           id="path4737"
           d="m 1003.0389,248.70361 c 1.8796,-2.28952 3.8274,-5.09559 5.6591,-8.26806 1.8316,-3.17248 3.2979,-6.27991 4.3409,-9.05246 1.0885,2.27434 0.409,6.43591 -1.9115,10.45508 -2.3194,4.01732 -5.5751,6.66877 -8.0885,6.86544 z"
           style="fill:#000000;fill-opacity:1;fill-rule:nonzero;stroke:none" />
      </g>
      <path
         inkscape:label="{&quot;attr&quot;:&quot;color&quot;,&quot;map&quot;:[&quot;0=lime&quot;,&quot;1=red&quot;],&quot;tag&quot;:&quot;%s&quot;}"
         style="fill:#00ff00;fill-opacity:1;stroke:none;display:inline"
         d="m 282.06526,814.30699 c -3.5047,0 -6.3492,2.90053 -6.3492,6.47439 0,0.00391 0,0.00768 0,0.0116 l 0,32.77801 12.6871,0 0,-32.56916 c 0.0024,-0.07385 0.0114,-0.146 0.0114,-0.22045 0,-3.57386 -2.8445,-6.47439 -6.3493,-6.47439 z"
         id="path4739" />
      <g
         transform="matrix(0.3677742,0,0,0.3677742,-59.52465,739.62699)"
         style="fill:#000000;fill-opacity:1"
         id="g4747">
        <path
           id="path4749"
           d="m 870.73804,158.5105 0,69.24757 c 1.59097,-22.13035 15.4922,-40.86986 34.84375,-49.23782 l 0,-20.00975 -34.84375,0 z"
           style="fill:url(#linearGradient4839);fill-opacity:1;stroke:none" />
        <path
           id="path4751"
           d="m 928.15632,173.47909 c -31.88502,0 -57.75,25.89623 -57.75,57.78125 0,26.01091 17.2199,48.02195 40.875,55.25 l 0,-66.125 c -2e-05,-0.01054 0,-0.02071 0,-0.03125 0,-9.6255 7.812,-17.4375 17.4375,-17.4375 9.6255,0 17.4375,7.812 17.4375,17.4375 0,0.20053 -0.02452,0.39485 -0.03125,0.59375 l 0,65.1875 c 23.08502,-7.56731 39.78125,-29.27048 39.78125,-54.875 0,-31.88502 -25.86498,-57.78125 -57.75,-57.78125 z"
           style="fill:url(#radialGradient4841);fill-opacity:1;fill-rule:nonzero;stroke:#000000;stroke-width:0.27190602;stroke-linecap:square;stroke-miterlimit:4;stroke-opacity:1;stroke-dasharray:none" />
        <rect
           y="308.84802"
           x="903.80475"
           height="8.1920004"
           width="49.152"
           id="rect4755"
           style="fill:url(#linearGradient4843);fill-opacity:1;stroke:#000000;stroke-width:0.27190599;stroke-linecap:square;stroke-miterlimit:4;stroke-opacity:1;stroke-dasharray:none" />
        <rect
           transform="scale(1,-1)"
           style="fill:url(#linearGradient4845);fill-opacity:1;stroke:#000000;stroke-width:0.27190599;stroke-linecap:square;stroke-miterlimit:4;stroke-opacity:1;stroke-dasharray:none"
           id="rect4757"
           width="49.152"
           height="8.1920004"
           x="863.06964"
           y="-158.47043" />
        <path
           transform="translate(306.81098,-90.23149)"
           sodipodi:ry="0"
           sodipodi:rx="2.0480001"
           sodipodi:cy="344.12799"
           sodipodi:cx="636.92798"
           id="path4759"
           style="opacity:1;fill:#ffffff;fill-opacity:1;stroke:#000000;stroke-width:1.35952985;stroke-linecap:square;stroke-miterlimit:4;stroke-opacity:1;stroke-dasharray:none"
           sodipodi:type="arc" />
        <path
           style="fill:url(#radialGradient4847);fill-opacity:1;stroke:#000000;stroke-width:0.27190599;stroke-linecap:square;stroke-miterlimit:4;stroke-opacity:1;stroke-dasharray:none"
           d="m 928.80351,203.22932 c 9.6255,0 17.4375,7.812 17.4375,17.4375 0,0.01054 2e-05,0.02071 0,0.03125 l 0,88.28125 -34.84375,0 0,-87.71875 c -0.0067,-0.1989 -0.0313,-0.39322 -0.0313,-0.59375 0,-9.6255 7.81205,-17.4375 17.43755,-17.4375 z"
           id="path4883" />
        <path
           id="path4753"
           d="m 928.80351,203.22932 c 9.6255,0 17.4375,7.812 17.4375,17.4375 0,0.01054 2e-05,0.02071 0,0.03125 l 0,88.28125 -34.84375,0 0,-87.71875 c -0.0067,-0.1989 -0.0313,-0.39322 -0.0313,-0.59375 0,-9.6255 7.81205,-17.4375 17.43755,-17.4375 z"
           style="fill:url(#linearGradient4849);fill-opacity:1;stroke:#000000;stroke-width:0.27190599;stroke-linecap:square;stroke-miterlimit:4;stroke-opacity:1;stroke-dasharray:none" />
        <path
           style="fill:url(#radialGradient4851);fill-opacity:1;fill-rule:nonzero;stroke:none"
           d="m 929.11815,173.47909 c 31.88502,0 57.75,25.89623 57.75,57.78125 0,26.01091 -17.2199,48.02195 -40.875,55.25 l 0,-66.125 c 2e-05,-0.01054 0,-0.02071 0,-0.03125 0,-9.6255 -7.812,-17.4375 -17.4375,-17.4375 -9.6255,0 -17.4375,7.812 -17.4375,17.4375 0,0.20053 0.02452,0.39485 0.03125,0.59375 l 0,65.1875 c -23.08502,-7.56731 -39.78125,-29.27048 -39.78125,-54.875 0,-31.88502 25.86498,-57.78125 57.75,-57.78125 z"
           id="path4923" />
      </g>
    </g>
  </g>
</svg>
