<?xml version="1.0" encoding="UTF-8" standalone="no"?>
<!-- Created with Inkscape (http://www.inkscape.org/) -->
<svg
   xmlns:dc="http://purl.org/dc/elements/1.1/"
   xmlns:cc="http://creativecommons.org/ns#"
   xmlns:rdf="http://www.w3.org/1999/02/22-rdf-syntax-ns#"
   xmlns:svg="http://www.w3.org/2000/svg"
   xmlns="http://www.w3.org/2000/svg"
   xmlns:xlink="http://www.w3.org/1999/xlink"
   xmlns:sodipodi="http://sodipodi.sourceforge.net/DTD/sodipodi-0.dtd"
   xmlns:inkscape="http://www.inkscape.org/namespaces/inkscape"
   width="386.71835"
   height="546.60236"
   id="svg2603"
   sodipodi:version="0.32"
   inkscape:version="0.46+devel"
   version="1.0"
   sodipodi:docname="pump2.svg"
   inkscape:output_extension="org.inkscape.output.svg.inkscape">
  <defs
     id="defs2605">
    <linearGradient
       id="linearGradient3284">
      <stop
         style="stop-color:#f2f2f2;stop-opacity:1"
         offset="0"
         id="stop3286" />
      <stop
         style="stop-color:#6d6d6d;stop-opacity:1"
         offset="1"
         id="stop3288" />
    </linearGradient>
    <linearGradient
       inkscape:collect="always"
       id="linearGradient3306">
      <stop
         style="stop-color:#7f7f7f;stop-opacity:1"
         offset="0"
         id="stop3308" />
      <stop
         style="stop-color:#000000;stop-opacity:0;"
         offset="1"
         id="stop3310" />
    </linearGradient>
    <linearGradient
       id="linearGradient3274">
      <stop
         style="stop-color:#cccccc;stop-opacity:1;"
         offset="0"
         id="stop3276" />
      <stop
         id="stop3282"
         offset="0.87850863"
         style="stop-color:#999999;stop-opacity:1" />
      <stop
         style="stop-color:#6d6d6d;stop-opacity:1"
         offset="1"
         id="stop3278" />
    </linearGradient>
    <linearGradient
       id="linearGradient3392">
      <stop
         id="stop3394"
         offset="0"
         style="stop-color:#ffffff;stop-opacity:1" />
      <stop
         id="stop3398"
         offset="1"
         style="stop-color:#ffffff;stop-opacity:0.40865385" />
    </linearGradient>
    <radialGradient
       inkscape:collect="always"
       xlink:href="#linearGradient3284"
       id="radialGradient2585"
       gradientUnits="userSpaceOnUse"
       gradientTransform="matrix(0.2575102,-4.8474239e-4,2.7477516e-3,1.4592251,241.45016,49.24444)"
       cx="517.37506"
       cy="66.839378"
       fx="517.37506"
       fy="66.839378"
       r="233" />
    <radialGradient
       inkscape:collect="always"
       xlink:href="#linearGradient3284"
       id="radialGradient2587"
       gradientUnits="userSpaceOnUse"
       gradientTransform="matrix(-0.2575104,4.0589585e-4,-1.6394359e-3,-1.0398315,788.09755,636.02703)"
       cx="758.14172"
       cy="66.821121"
       fx="758.14172"
       fy="66.821121"
       r="233" />
    <linearGradient
       inkscape:collect="always"
       xlink:href="#linearGradient3306"
       id="linearGradient2589"
       gradientUnits="userSpaceOnUse"
       gradientTransform="matrix(-1.8824153e-3,-0.9999982,0.9999982,-1.8824153e-3,255.65401,566.75248)"
       x1="380"
       y1="80"
       x2="420"
       y2="160" />
    <radialGradient
       inkscape:collect="always"
       xlink:href="#linearGradient3274"
       id="radialGradient2591"
       gradientUnits="userSpaceOnUse"
       gradientTransform="matrix(-1.0106192,1.9024091e-3,-1.9023292e-3,-1.0106192,727.98292,618.62496)"
       cx="210"
       cy="260.00003"
       fx="210"
       fy="260.00003"
       r="188.0032" />
    <radialGradient
       inkscape:collect="always"
       xlink:href="#linearGradient3392"
       id="radialGradient2593"
       gradientUnits="userSpaceOnUse"
       gradientTransform="matrix(-1.9704458e-2,1.1784703,-2.103369,-3.5169104e-2,555.73897,-60.998632)"
       cx="213.14218"
       cy="15.790684"
       fx="213.14218"
       fy="15.790684"
       r="139.76562" />
  </defs>
  <sodipodi:namedview
     id="base"
     pagecolor="#ffffff"
     bordercolor="#666666"
     borderopacity="1.0"
     gridtolerance="10000"
     guidetolerance="10"
     objecttolerance="10"
     inkscape:pageopacity="0.0"
     inkscape:pageshadow="2"
     inkscape:zoom="0.96779678"
     inkscape:cx="193.35918"
     inkscape:cy="273.30118"
     inkscape:document-units="px"
     inkscape:current-layer="layer1"
     showgrid="true"
     inkscape:window-width="1280"
     inkscape:window-height="744"
     inkscape:window-x="-4"
     inkscape:window-y="-4"
     showguides="true"
     inkscape:guide-bbox="true">
    <inkscape:grid
       type="xygrid"
       id="grid2513"
       empspacing="5"
       visible="true"
       enabled="false" />
  </sodipodi:namedview>
  <metadata
     id="metadata2608">
    <rdf:RDF>
      <cc:Work
         rdf:about="">
        <dc:format>image/svg+xml</dc:format>
        <dc:type
           rdf:resource="http://purl.org/dc/dcmitype/StillImage" />
        <dc:title>pump2</dc:title>
        <dc:date>2010-01-19</dc:date>
        <dc:publisher>
          <cc:Agent>
            <dc:title>Ecava</dc:title>
          </cc:Agent>
        </dc:publisher>
      </cc:Work>
    </rdf:RDF>
  </metadata>
  <g
     inkscape:label="Layer 1"
     inkscape:groupmode="layer"
     id="layer1"
     transform="translate(-321.75032,-83.301537)">
    <g
       id="g2572"
       inkscape:label="{&quot;attr&quot;:&quot;clone&quot;,&quot;map&quot;:[&quot;%s=tagName&quot;]}">
      <path
         sodipodi:nodetypes="cssscccccc"
         id="path3402"
         d="m 325.25858,356.62106 c 0.19743,104.87983 85.47751,189.83945 190.35732,189.64203 104.87981,-0.19743 189.83942,-85.47752 189.64201,-190.35734 -0.19744,-104.87981 -85.47751,-189.83943 -190.35733,-189.64201 -13.71922,0.02583 -4.99999,0.00942 -19.99997,0.03765 l -0.15059,-79.999853 -169.9997,0.32001 0.49885,264.999523 0.06249,-0.00011 c -0.03978,1.66 -0.05623,3.32988 -0.05308,5.0001 z"
         style="fill:url(#radialGradient2585);fill-opacity:1;stroke:#000000;stroke-width:6;stroke-linejoin:miter;stroke-miterlimit:4;stroke-opacity:1;stroke-dasharray:none" />
      <path
         style="fill:url(#radialGradient2587);fill-opacity:1;stroke:#000000;stroke-width:6;stroke-linejoin:miter;stroke-miterlimit:4;stroke-opacity:1;stroke-dasharray:none"
         d="M 705.46757,356.90543 C 705.82187,252.02602 620.98991,166.61895 516.1105,166.26465 411.23112,165.91036 325.82404,250.74231 325.46974,355.62174 c -0.35429,104.87939 84.47767,190.28645 189.35708,190.64075 13.71916,0.04635 4.99997,0.01689 19.99987,0.06757 l -0.27024,79.99954 169.99903,0.57427 0.89521,-264.99847 -0.06251,-0.00021 c 0.04852,-1.65978 0.07376,-3.32956 0.07939,-4.99976 z"
         id="path3651"
         sodipodi:nodetypes="cssscccccc" />
      <path
         sodipodi:nodetypes="ccc"
         id="path3296"
         d="M 331.17197,310.60986 330.77039,97.276912 331.17197,310.60986 z"
         style="opacity:0.67716812;fill:url(#linearGradient2589);fill-opacity:1;stroke:none" />
      <path
         id="path2492"
         d="m 327.33018,361.46092 c 1.13963,61.76317 35.37654,121.36977 87.79094,153.90132 54.40554,35.03907 127.39509,38.4176 184.87888,8.73224 56.00716,-27.83666 96.05673,-85.33758 102.16577,-147.61324 6.88465,-59.38781 -16.85122,-120.79913 -61.53717,-160.28161 -43.71917,-39.75598 -106.74713,-56.51914 -164.57165,-43.82035 -63.82697,13.00785 -118.70727,61.95376 -139.00563,123.93823 -7.07909,20.83604 -10.32489,43.0262 -9.72114,65.14341 z"
         style="fill:url(#radialGradient2591);fill-opacity:1;stroke:none" />
      <path
         transform="matrix(-2.1961508e-3,-1.1666647,1.1666645,-2.1961499e-3,235.78586,636.79)"
         d="m 360,240 c 0,66.24 -53.76,120 -120,120 -66.24,0 -120,-53.76 -120,-120 0,-66.24 53.76,-120 120,-120 66.24,0 120,53.76 120,120 z"
         sodipodi:ry="120"
         sodipodi:rx="120"
         sodipodi:cy="240"
         sodipodi:cx="240"
         id="path3404"
         style="fill:#000000;fill-opacity:1;stroke:#ffffff;stroke-width:6;stroke-linejoin:miter;stroke-miterlimit:4;stroke-opacity:1;stroke-dasharray:none"
         sodipodi:type="arc" />
      <g
         inkscape:label="{attr:&quot;rotate&quot;,tag:&quot;app.currentTime.second&quot;,max:59,min:0}"
         id="g3278" />
      <path
         sodipodi:type="arc"
         style="fill:#cccccc;fill-opacity:1;stroke:#000000;stroke-width:6;stroke-linejoin:miter;stroke-miterlimit:4;stroke-opacity:1;stroke-dasharray:none"
         id="path3406-8"
         sodipodi:cx="260"
         sodipodi:cy="260"
         sodipodi:rx="100"
         sodipodi:ry="100"
         d="m 360,260 c 0,55.2 -44.8,100 -100,100 -55.2,0 -100,-44.8 -100,-100 0,-55.2 44.8,-100 100,-100 55.2,0 100,44.8 100,100 z"
         transform="matrix(1.1,0,0,1.1,229.25826,70.2634)"
         inkscape:label="{&quot;attr&quot;:&quot;color&quot;,&quot;map&quot;:[&quot;0=lime&quot;,&quot;1=red&quot;],&quot;tag&quot;:&quot;%s&quot;}" />
      <path
         transform="translate(305.25826,96.2634)"
         sodipodi:type="star"
         style="fill:#000000;fill-opacity:1;stroke:none"
         id="path3305-2"
         sodipodi:sides="6"
         sodipodi:cx="210"
         sodipodi:cy="260"
         sodipodi:r1="95.087486"
         sodipodi:r2="41.614693"
         sodipodi:arg1="0.52863048"
         sodipodi:arg2="-0.32867156"
         inkscape:flatsided="false"
         inkscape:rounded="0.50000001"
         inkscape:randomized="0"
         d="m 292.10791,307.95749 c 28.17374,24.59052 -10.23373,-79.91162 -42.72077,-61.39013 -50.21699,28.62969 -28.72201,51.79832 -39.86559,108.51892 -7.20915,36.69443 64.08863,-48.81848 31.80503,-67.69234 -49.90254,-29.17434 -59.21967,1.02517 -113.91294,19.73485 -35.382886,12.10391 74.32236,31.09314 74.5258,-6.30221 0.31446,-57.80403 -30.49766,-50.77315 -74.04735,-88.78407 -28.173737,-24.59052 10.23373,79.91162 42.72077,61.39013 50.21699,-28.62969 28.72201,-51.79832 39.86559,-108.51892 7.20915,-36.69443 -64.08863,48.81848 -31.80503,67.69234 49.90254,29.17434 59.21967,-1.02517 113.91294,-19.73485 35.38289,-12.10391 -74.32236,-31.09314 -74.5258,6.30221 -0.31446,57.80403 30.49766,50.77315 74.04735,88.78407 z"
         inkscape:label="{&quot;attr&quot;:&quot;opac&quot;,&quot;max&quot;:&quot;1&quot;,&quot;min&quot;:&quot;0&quot;,&quot;tag&quot;:&quot;%s&quot;},{&quot;attr&quot;:&quot;rotate&quot;,&quot;max&quot;:&quot;59&quot;,&quot;min&quot;:&quot;0&quot;,&quot;tag&quot;:&quot;app.currentTime.second&quot;}" />
      <path
         inkscape:label="{&quot;attr&quot;:&quot;opac&quot;,&quot;max&quot;:&quot;0&quot;,&quot;min&quot;:&quot;1&quot;,&quot;tag&quot;:&quot;%s&quot;}"
         d="m 292.10791,307.95749 c 28.17374,24.59052 -10.23373,-79.91162 -42.72077,-61.39013 -50.21699,28.62969 -28.72201,51.79832 -39.86559,108.51892 -7.20915,36.69443 64.08863,-48.81848 31.80503,-67.69234 -49.90254,-29.17434 -59.21967,1.02517 -113.91294,19.73485 -35.382886,12.10391 74.32236,31.09314 74.5258,-6.30221 0.31446,-57.80403 -30.49766,-50.77315 -74.04735,-88.78407 -28.173737,-24.59052 10.23373,79.91162 42.72077,61.39013 50.21699,-28.62969 28.72201,-51.79832 39.86559,-108.51892 7.20915,-36.69443 -64.08863,48.81848 -31.80503,67.69234 49.90254,29.17434 59.21967,-1.02517 113.91294,-19.73485 35.38289,-12.10391 -74.32236,-31.09314 -74.5258,6.30221 -0.31446,57.80403 30.49766,50.77315 74.04735,88.78407 z"
         inkscape:randomized="0"
         inkscape:rounded="0.50000001"
         inkscape:flatsided="false"
         sodipodi:arg2="-0.32867156"
         sodipodi:arg1="0.52863048"
         sodipodi:r2="41.614693"
         sodipodi:r1="95.087486"
         sodipodi:cy="260"
         sodipodi:cx="210"
         sodipodi:sides="6"
         id="path2629"
         style="fill:#000000;fill-opacity:1;stroke:none"
         sodipodi:type="star"
         transform="translate(305.25826,96.2634)" />
      <path
         transform="translate(305.25826,96.2634)"
         sodipodi:type="arc"
         style="fill:#808080;fill-opacity:0.96078431;stroke:none"
         id="path3303-4"
         sodipodi:cx="210"
         sodipodi:cy="260"
         sodipodi:rx="10"
         sodipodi:ry="10"
         d="m 220,260 c 0,5.52 -4.48,10 -10,10 -5.52,0 -10,-4.48 -10,-10 0,-5.52 4.48,-10 10,-10 5.52,0 10,4.48 10,10 z" />
      <path
         id="path2614"
         d="m 513.61442,169.64446 c -89.97766,-1.08186 -174.0274,72.94779 -184.60133,162.16028 -1.61344,14.20243 -1.83145,28.50984 -2.16947,42.78542 105.94319,72.63711 253.84081,75.94268 364.20969,11.43943 10.576,-3.63304 14.14315,-16.53794 12.48147,-26.71056 1.71321,-78.65182 -51.94182,-153.61388 -125.56213,-179.59977 -20.56293,-7.25523 -42.53374,-10.37853 -64.35823,-10.0748 z"
         style="opacity:0.75961537;fill:url(#radialGradient2593);fill-opacity:1;stroke:none" />
    </g>
  </g>
</svg>
