<?xml version="1.0" encoding="UTF-8" standalone="no"?>
<!-- Created with Inkscape (http://www.inkscape.org/) -->
<svg
   xmlns:dc="http://purl.org/dc/elements/1.1/"
   xmlns:cc="http://creativecommons.org/ns#"
   xmlns:rdf="http://www.w3.org/1999/02/22-rdf-syntax-ns#"
   xmlns:svg="http://www.w3.org/2000/svg"
   xmlns="http://www.w3.org/2000/svg"
   xmlns:xlink="http://www.w3.org/1999/xlink"
   xmlns:sodipodi="http://sodipodi.sourceforge.net/DTD/sodipodi-0.dtd"
   xmlns:inkscape="http://www.inkscape.org/namespaces/inkscape"
   width="546.99634"
   height="386.21048"
   id="svg2603"
   sodipodi:version="0.32"
   inkscape:version="0.46+devel"
   version="1.0"
   sodipodi:docname="pump1.svg"
   inkscape:output_extension="org.inkscape.output.svg.inkscape">
  <defs
     id="defs2605">
    <linearGradient
       gradientTransform="translate(304.85714,100.93361)"
       inkscape:collect="always"
       xlink:href="#linearGradient3306"
       id="linearGradient3312"
       x1="380"
       y1="80"
       x2="420"
       y2="160"
       gradientUnits="userSpaceOnUse" />
    <linearGradient
       inkscape:collect="always"
       id="linearGradient3306">
      <stop
         style="stop-color:#7f7f7f;stop-opacity:1"
         offset="0"
         id="stop3308" />
      <stop
         style="stop-color:#000000;stop-opacity:0;"
         offset="1"
         id="stop3310" />
    </linearGradient>
    <linearGradient
       id="linearGradient3284-1">
      <stop
         style="stop-color:#f2f2f2;stop-opacity:1"
         offset="0"
         id="stop3286-7" />
      <stop
         style="stop-color:#6d6d6d;stop-opacity:1"
         offset="1"
         id="stop3288-4" />
    </linearGradient>
    <linearGradient
       inkscape:collect="always"
       id="linearGradient3306-4">
      <stop
         style="stop-color:#7f7f7f;stop-opacity:1"
         offset="0"
         id="stop3308-8" />
      <stop
         style="stop-color:#000000;stop-opacity:0;"
         offset="1"
         id="stop3310-8" />
    </linearGradient>
    <linearGradient
       id="linearGradient3274-4">
      <stop
         style="stop-color:#cccccc;stop-opacity:1;"
         offset="0"
         id="stop3276-5" />
      <stop
         id="stop3282-5"
         offset="0.87850863"
         style="stop-color:#999999;stop-opacity:1" />
      <stop
         style="stop-color:#6d6d6d;stop-opacity:1"
         offset="1"
         id="stop3278-1" />
    </linearGradient>
    <linearGradient
       id="linearGradient3392-1">
      <stop
         id="stop3394-1"
         offset="0"
         style="stop-color:#ffffff;stop-opacity:1" />
      <stop
         id="stop3398-5"
         offset="1"
         style="stop-color:#ffffff;stop-opacity:0.40865385" />
    </linearGradient>
    <radialGradient
       inkscape:collect="always"
       xlink:href="#linearGradient3284-1"
       id="radialGradient2585"
       gradientUnits="userSpaceOnUse"
       gradientTransform="matrix(0,0.2575107,-1.4592275,8.8077476e-7,489.0651,-65.635198)"
       cx="517.37506"
       cy="66.839378"
       fx="517.37506"
       fy="66.839378"
       r="233" />
    <radialGradient
       inkscape:collect="always"
       xlink:href="#linearGradient3284-1"
       id="radialGradient2587"
       gradientUnits="userSpaceOnUse"
       gradientTransform="matrix(7.884614e-5,-0.2575107,1.0398327,3.1796099e-4,-98.74543,479.90662)"
       cx="758.14172"
       cy="66.821121"
       fx="758.14172"
       fy="66.821121"
       r="233" />
    <linearGradient
       inkscape:collect="always"
       xlink:href="#linearGradient3306-4"
       id="linearGradient2589"
       gradientUnits="userSpaceOnUse"
       gradientTransform="translate(-28.46876,-52.405518)"
       x1="380"
       y1="80"
       x2="420"
       y2="160" />
    <radialGradient
       inkscape:collect="always"
       xlink:href="#linearGradient3274-4"
       id="radialGradient2591"
       gradientUnits="userSpaceOnUse"
       gradientTransform="matrix(0,-1.0106211,1.0106211,7.9132866e-8,-81.23027,419.82491)"
       cx="210"
       cy="260.00003"
       fx="210"
       fy="260.00003"
       r="188.0032" />
    <radialGradient
       inkscape:collect="always"
       xlink:href="#linearGradient3392-1"
       id="radialGradient2593"
       gradientUnits="userSpaceOnUse"
       gradientTransform="matrix(-2.1922793e-2,1.1784312,-2.1032991,-3.9128454e-2,222.55863,-211.06268)"
       cx="213.14218"
       cy="15.790684"
       fx="213.14218"
       fy="15.790684"
       r="139.76562" />
  </defs>
  <sodipodi:namedview
     id="base"
     pagecolor="#ffffff"
     bordercolor="#666666"
     borderopacity="1.0"
     gridtolerance="10000"
     guidetolerance="10"
     objecttolerance="10"
     inkscape:pageopacity="0.0"
     inkscape:pageshadow="2"
     inkscape:zoom="1.3697194"
     inkscape:cx="272.48755"
     inkscape:cy="194.07936"
     inkscape:document-units="px"
     inkscape:current-layer="layer1"
     showgrid="false"
     inkscape:window-width="1280"
     inkscape:window-height="744"
     inkscape:window-x="-4"
     inkscape:window-y="-4" />
  <metadata
     id="metadata2608">
    <rdf:RDF>
      <cc:Work
         rdf:about="">
        <dc:format>image/svg+xml</dc:format>
        <dc:type
           rdf:resource="http://purl.org/dc/dcmitype/StillImage" />
        <dc:title>pump1</dc:title>
        <dc:date>2010-01-19</dc:date>
        <dc:publisher>
          <cc:Agent>
            <dc:title>Ecava</dc:title>
          </cc:Agent>
        </dc:publisher>
      </cc:Work>
    </rdf:RDF>
  </metadata>
  <g
     inkscape:label="Layer 1"
     inkscape:groupmode="layer"
     id="layer1"
     transform="translate(-241.87143,-168.90774)">
    <path
       style="opacity:0.67716812;fill:url(#linearGradient3312);fill-opacity:1;stroke:none"
       d="m 560.85715,176.93361 213.33333,0 -213.33333,0 z"
       id="path3296"
       sodipodi:nodetypes="ccc" />
    <g
       id="g3277"
       inkscape:label="{&quot;attr&quot;:&quot;clone&quot;,&quot;map&quot;:[&quot;%s=tagName&quot;]}">
      <g
         transform="translate(334.33651,154.31326)"
         id="g2631"
         inkscape:label="{&quot;attr&quot;:&quot;clone&quot;,&quot;map&quot;:[&quot;%s=tagName&quot;]}">
        <path
           sodipodi:nodetypes="cssscccccc"
           id="path3402-4"
           d="m 181.53125,17.594482 c -104.88001,0 -190.00001,85.119998 -190.00001,189.999998 0,104.88 85.12,190 190.00001,190 104.88,0 190,-85.12 190,-190 0,-13.71924 0,-5 0,-20 l 80,0 0,-169.999998 -265,0 0,0.0625 c -1.65993,-0.04291 -3.32978,-0.0625 -5,-0.0625 z"
           style="opacity:1;fill:url(#radialGradient2585);fill-opacity:1;stroke:#000000;stroke-width:6;stroke-linejoin:miter;stroke-miterlimit:4;stroke-opacity:1;stroke-dasharray:none" />
        <path
           style="opacity:1;fill:url(#radialGradient2587);fill-opacity:1;stroke:#000000;stroke-width:6;stroke-linejoin:miter;stroke-miterlimit:4;stroke-opacity:1;stroke-dasharray:none"
           d="M 180.53118,397.80227 C 285.40974,398.354 370.97634,313.68295 371.52807,208.8044 372.07979,103.92586 287.40875,18.359262 182.53019,17.807532 77.65164,17.255812 -7.91496,101.92685 -8.46668,206.8054 c -0.07218,13.71905 -0.02631,4.99993 -0.10522,19.99972 l -79.99889,-0.42084 -0.89429,169.99765 264.99633,1.39404 0.00033,-0.0625 c 1.65968,0.05164 3.32941,0.08002 4.9996,0.0888 z"
           id="path3651-0"
           sodipodi:nodetypes="cssscccccc" />
        <path
           sodipodi:nodetypes="ccc"
           id="path3296-9"
           d="m 227.53125,23.594482 213.33333,0 -213.33333,0 z"
           style="opacity:0.67716812;fill:url(#linearGradient2589);fill-opacity:1;stroke:none" />
        <path
           id="path2492-4"
           d="m 176.6875,19.656982 c -61.76519,1.02336 -121.43614,35.148 -154.06631,87.501068 -35.14141,54.33948 -38.65733,127.32256 -9.08023,184.86211 27.73118,56.05947 85.15661,96.21721 147.42067,102.44347 59.37473,6.99643 120.83062,-16.6238 160.39715,-61.23535 39.83821,-43.64426 56.71999,-106.64055 44.13006,-164.48887 C 352.60118,104.88806 303.75866,49.915722 241.8125,29.500732 c -20.82267,-7.1183 -43.00669,-10.40588 -65.125,-9.84375 z"
           style="opacity:1;fill:url(#radialGradient2591);fill-opacity:1;stroke:none" />
        <path
           transform="matrix(1.1666667,0,0,1.1666665,-98.46877,-72.405478)"
           d="m 360,240 c 0,66.24 -53.76,120 -120,120 -66.24,0 -120,-53.76 -120,-120 0,-66.24 53.76,-120 120,-120 66.24,0 120,53.76 120,120 z"
           sodipodi:ry="120"
           sodipodi:rx="120"
           sodipodi:cy="240"
           sodipodi:cx="240"
           id="path3404-8"
           style="opacity:1;fill:#000000;fill-opacity:1;stroke:#ffffff;stroke-width:6;stroke-linejoin:miter;stroke-miterlimit:4;stroke-opacity:1;stroke-dasharray:none"
           sodipodi:type="arc" />
        <path
           inkscape:label="{&quot;attr&quot;:&quot;color&quot;,&quot;map&quot;:[&quot;0=lime&quot;,&quot;1=red&quot;],&quot;tag&quot;:&quot;%s&quot;}"
           transform="matrix(1.1,0,0,1.1,-104.46876,-78.405516)"
           d="m 360,260 c 0,55.2 -44.8,100 -100,100 -55.2,0 -100,-44.8 -100,-100 0,-55.2 44.8,-100 100,-100 55.2,0 100,44.8 100,100 z"
           sodipodi:ry="100"
           sodipodi:rx="100"
           sodipodi:cy="260"
           sodipodi:cx="260"
           id="path3406-8"
           style="fill:#cccccc;fill-opacity:1;stroke:#000000;stroke-width:6;stroke-linejoin:miter;stroke-miterlimit:4;stroke-opacity:1;stroke-dasharray:none"
           sodipodi:type="arc" />
        <path
           inkscape:label="{&quot;attr&quot;:&quot;opac&quot;,&quot;max&quot;:&quot;1&quot;,&quot;min&quot;:&quot;0&quot;,&quot;tag&quot;:&quot;%s&quot;},{&quot;attr&quot;:&quot;rotate&quot;,&quot;max&quot;:&quot;59&quot;,&quot;min&quot;:&quot;0&quot;,&quot;tag&quot;:&quot;app.currentTime.second&quot;}"
           d="m 292.10791,307.95749 c 28.17374,24.59052 -10.23373,-79.91162 -42.72077,-61.39013 -50.21699,28.62969 -28.72201,51.79832 -39.86559,108.51892 -7.20915,36.69443 64.08863,-48.81848 31.80503,-67.69234 -49.90254,-29.17434 -59.21967,1.02517 -113.91294,19.73485 -35.382886,12.10391 74.32236,31.09314 74.5258,-6.30221 0.31446,-57.80403 -30.49766,-50.77315 -74.04735,-88.78407 -28.173737,-24.59052 10.23373,79.91162 42.72077,61.39013 50.21699,-28.62969 28.72201,-51.79832 39.86559,-108.51892 7.20915,-36.69443 -64.08863,48.81848 -31.80503,67.69234 49.90254,29.17434 59.21967,-1.02517 113.91294,-19.73485 35.38289,-12.10391 -74.32236,-31.09314 -74.5258,6.30221 -0.31446,57.80403 30.49766,50.77315 74.04735,88.78407 z"
           inkscape:randomized="0"
           inkscape:rounded="0.50000001"
           inkscape:flatsided="false"
           sodipodi:arg2="-0.32867156"
           sodipodi:arg1="0.52863048"
           sodipodi:r2="41.614693"
           sodipodi:r1="95.087486"
           sodipodi:cy="260"
           sodipodi:cx="210"
           sodipodi:sides="6"
           id="path3305-2"
           style="fill:#000000;fill-opacity:1;stroke:none"
           sodipodi:type="star"
           transform="translate(-28.46876,-52.40552)" />
        <path
           transform="translate(-28.46876,-52.40552)"
           sodipodi:type="star"
           style="fill:#000000;fill-opacity:1;stroke:none"
           id="path2629"
           sodipodi:sides="6"
           sodipodi:cx="210"
           sodipodi:cy="260"
           sodipodi:r1="95.087486"
           sodipodi:r2="41.614693"
           sodipodi:arg1="0.52863048"
           sodipodi:arg2="-0.32867156"
           inkscape:flatsided="false"
           inkscape:rounded="0.50000001"
           inkscape:randomized="0"
           d="m 292.10791,307.95749 c 28.17374,24.59052 -10.23373,-79.91162 -42.72077,-61.39013 -50.21699,28.62969 -28.72201,51.79832 -39.86559,108.51892 -7.20915,36.69443 64.08863,-48.81848 31.80503,-67.69234 -49.90254,-29.17434 -59.21967,1.02517 -113.91294,19.73485 -35.382886,12.10391 74.32236,31.09314 74.5258,-6.30221 0.31446,-57.80403 -30.49766,-50.77315 -74.04735,-88.78407 -28.173737,-24.59052 10.23373,79.91162 42.72077,61.39013 50.21699,-28.62969 28.72201,-51.79832 39.86559,-108.51892 7.20915,-36.69443 -64.08863,48.81848 -31.80503,67.69234 49.90254,29.17434 59.21967,-1.02517 113.91294,-19.73485 35.38289,-12.10391 -74.32236,-31.09314 -74.5258,6.30221 -0.31446,57.80403 30.49766,50.77315 74.04735,88.78407 z"
           inkscape:label="{&quot;attr&quot;:&quot;opac&quot;,&quot;max&quot;:&quot;0&quot;,&quot;min&quot;:&quot;1&quot;,&quot;tag&quot;:&quot;%s&quot;}" />
        <path
           d="m 220,260 c 0,5.52 -4.48,10 -10,10 -5.52,0 -10,-4.48 -10,-10 0,-5.52 4.48,-10 10,-10 5.52,0 10,4.48 10,10 z"
           sodipodi:ry="10"
           sodipodi:rx="10"
           sodipodi:cy="260"
           sodipodi:cx="210"
           id="path3303-4"
           style="opacity:1;fill:#808080;fill-opacity:0.96078431;stroke:none"
           sodipodi:type="arc"
           transform="translate(-28.46876,-52.405518)" />
        <path
           id="path2614-5"
           d="M 180,19.500732 C 90.02453,18.249502 5.83558,92.120792 -4.90626,181.31323 c -1.64016,14.19937 -1.88511,28.50633 -2.25,42.78125 105.80626,72.83641 253.6974,76.42038 364.18751,12.125 10.58281,-3.61312 14.17425,-16.51128 12.53173,-26.687 C 371.42423,130.88401 317.91042,55.821082 244.33915,29.696652 223.78991,22.402742 201.82502,19.238082 180,19.500732 z"
           style="opacity:0.75961537;fill:url(#radialGradient2593);fill-opacity:1;stroke:none" />
      </g>
    </g>
  </g>
</svg>
