<?xml version="1.0" encoding="UTF-8" standalone="no"?>
<!-- Created with Inkscape (http://www.inkscape.org/) -->
<svg
   xmlns:dc="http://purl.org/dc/elements/1.1/"
   xmlns:cc="http://creativecommons.org/ns#"
   xmlns:rdf="http://www.w3.org/1999/02/22-rdf-syntax-ns#"
   xmlns:svg="http://www.w3.org/2000/svg"
   xmlns="http://www.w3.org/2000/svg"
   xmlns:xlink="http://www.w3.org/1999/xlink"
   xmlns:sodipodi="http://sodipodi.sourceforge.net/DTD/sodipodi-0.dtd"
   xmlns:inkscape="http://www.inkscape.org/namespaces/inkscape"
   width="176.00003"
   height="111.01281"
   id="svg2"
   sodipodi:version="0.32"
   inkscape:version="0.46+devel"
   sodipodi:docname="conveyor2.svg"
   inkscape:output_extension="org.inkscape.output.svg.inkscape"
   version="1.0">
  <defs
     id="defs4">
    <linearGradient
       id="linearGradient3273-3">
      <stop
         id="stop3275-1"
         offset="0"
         style="stop-color:#030000;stop-opacity:1;" />
      <stop
         style="stop-color:#ffffff;stop-opacity:1"
         offset="0.73991114"
         id="stop3281-2" />
      <stop
         id="stop3277-3"
         offset="1"
         style="stop-color:#666666;stop-opacity:1" />
    </linearGradient>
    <radialGradient
       inkscape:collect="always"
       xlink:href="#linearGradient3273-3"
       id="radialGradient2521"
       gradientUnits="userSpaceOnUse"
       gradientTransform="matrix(3.5699285e-7,-0.8333328,0.8333333,2.3942016e-7,-28.635255,725.69522)"
       cx="340"
       cy="442.36218"
       fx="340"
       fy="442.36218"
       r="32" />
  </defs>
  <sodipodi:namedview
     id="base"
     pagecolor="#ffffff"
     bordercolor="#666666"
     borderopacity="1.0"
     gridtolerance="10000"
     guidetolerance="10"
     objecttolerance="10"
     inkscape:pageopacity="0.0"
     inkscape:pageshadow="2"
     inkscape:zoom="4.7652158"
     inkscape:cx="88.000015"
     inkscape:cy="55.506405"
     inkscape:document-units="px"
     inkscape:current-layer="layer1"
     showgrid="true"
     inkscape:snap-global="true"
     inkscape:window-width="1280"
     inkscape:window-height="744"
     inkscape:window-x="-4"
     inkscape:window-y="-4">
    <inkscape:grid
       type="xygrid"
       id="grid2518"
       empspacing="5"
       visible="true"
       enabled="false" />
  </sodipodi:namedview>
  <metadata
     id="metadata7">
    <rdf:RDF>
      <cc:Work
         rdf:about="">
        <dc:format>image/svg+xml</dc:format>
        <dc:type
           rdf:resource="http://purl.org/dc/dcmitype/StillImage" />
        <dc:title>conveyor2</dc:title>
        <dc:date>2010-01-19</dc:date>
        <dc:publisher>
          <cc:Agent>
            <dc:title>Ecava</dc:title>
          </cc:Agent>
        </dc:publisher>
        <dc:description>no animation</dc:description>
      </cc:Work>
    </rdf:RDF>
  </metadata>
  <g
     inkscape:label="Layer 1"
     inkscape:groupmode="layer"
     id="layer1"
     transform="translate(-284.49997,-416.86218)">
    <g
       id="g2503">
      <rect
         style="fill:#1a1a1a;fill-opacity:1;fill-rule:nonzero;stroke:none"
         id="rect3350"
         width="125"
         height="90"
         x="285"
         y="427.36218"
         rx="0"
         ry="45" />
      <path
         style="fill:#666666;fill-opacity:1;fill-rule:nonzero;stroke:#000000;stroke-opacity:1"
         d="m 405,417.375 c 30.36001,0 55,24.63999 55,55 0,30.36001 -24.63999,54.99999 -55,54.99999 l 0,-10 c 24.83999,0 45,-20.15997 45,-44.99999 0,-24.84002 -20.16001,-45 -45,-45 l 0,-10 z"
         id="path3317-4" />
      <path
         style="fill:none;stroke:#000000;stroke-width:0.97999996px;stroke-linecap:butt;stroke-linejoin:miter;stroke-opacity:1"
         d="m 454,497.36218 -49,-24.5 49,-24.5"
         id="path3500-1" />
      <path
         style="fill:none;stroke:#000000;stroke-width:1.02216184px;stroke-linecap:butt;stroke-linejoin:miter;stroke-opacity:1"
         d="m 436,427.36218 -31,45.5 31,45.49999"
         id="path3502-1" />
      <path
         style="fill:#000000;fill-opacity:1;fill-rule:nonzero;stroke:none"
         d="m 405.95089,427.35714 c 30.10044,-0.83334 53.75594,35.04393 40.78125,62.3125 -9.90763,25.69157 -46.47067,36.8161 -68.21875,19.28125 -20.56501,-14.45056 -25.38941,-48.00261 -7.28125,-66.25 8.65661,-9.73455 21.54212,-15.93884 34.71875,-15.34375 z"
         id="path2679-3" />
      <path
         sodipodi:type="arc"
         style="fill:url(#radialGradient2521);fill-opacity:1;fill-rule:nonzero;stroke:#000000;stroke-width:4;stroke-linejoin:round;stroke-miterlimit:4;stroke-opacity:1;stroke-dasharray:none"
         id="path3283-8"
         sodipodi:cx="340"
         sodipodi:cy="442.36218"
         sodipodi:rx="30"
         sodipodi:ry="30"
         d="m 370,442.36218 c 0,16.56 -13.44,30 -30,30 -16.56,0 -30,-13.44 -30,-30 0,-16.56 13.44,-30 30,-30 16.56,0 30,13.44 30,30 z"
         transform="matrix(-1,0,0,1,744.99997,30.000003)" />
      <path
         id="path3263-7"
         d="m 405.62502,445.03736 c 12.38535,0.01227 23.86719,9.71595 26.16667,21.8125 -17.48156,3.95704 -36.22517,4.02676 -53.375,-0.95833 2.78041,-12.16584 14.71703,-21.3577 27.20833,-20.85417 z"
         style="opacity:0.34513275;fill:#ffffff;fill-opacity:1;fill-rule:nonzero;stroke:none" />
      <path
         transform="matrix(-1,0,0,1,744.99997,30.000003)"
         d="m 350,442.36218 c 0,5.52 -4.48,10 -10,10 -5.52,0 -10,-4.48 -10,-10 0,-5.52 4.48,-10 10,-10 5.52,0 10,4.48 10,10 z"
         sodipodi:ry="10"
         sodipodi:rx="10"
         sodipodi:cy="442.36218"
         sodipodi:cx="340"
         id="path3261-4"
         style="fill:#030000;fill-opacity:1;fill-rule:nonzero;stroke:#000000;stroke-width:4;stroke-linejoin:round;stroke-miterlimit:4;stroke-opacity:1;stroke-dasharray:none"
         sodipodi:type="arc" />
      <rect
         style="fill:#666666;fill-opacity:1;fill-rule:nonzero;stroke:#000000;stroke-width:1;stroke-miterlimit:4;stroke-opacity:1;stroke-dasharray:none"
         id="rect2568-2"
         width="30"
         height="10"
         x="-404.99997"
         y="417.36218"
         transform="scale(-1,1)" />
      <rect
         style="fill:#666666;fill-opacity:1;fill-rule:nonzero;stroke:#000000;stroke-width:1;stroke-miterlimit:4;stroke-opacity:1;stroke-dasharray:none"
         id="rect2570-7"
         width="30"
         height="10"
         x="-404.99997"
         y="517.36218"
         transform="scale(-1,1)" />
      <rect
         style="fill:#666666;fill-opacity:1;fill-rule:nonzero;stroke:#000000;stroke-width:1;stroke-miterlimit:4;stroke-opacity:1;stroke-dasharray:none"
         id="rect2568-6-7"
         width="30"
         height="10"
         x="-374.99997"
         y="417.36218"
         transform="scale(-1,1)" />
      <rect
         style="fill:#666666;fill-opacity:1;fill-rule:nonzero;stroke:#000000;stroke-width:1;stroke-miterlimit:4;stroke-opacity:1;stroke-dasharray:none"
         id="rect2568-21-9"
         width="30"
         height="10"
         x="-374.99997"
         y="517.36218"
         transform="scale(-1,1)" />
      <path
         style="fill:none;stroke:#000000;stroke-width:1px;stroke-linecap:butt;stroke-linejoin:miter;stroke-opacity:1"
         d="m 450,472.36218 10,0"
         id="path3490-3" />
      <rect
         style="fill:#666666;fill-opacity:1;fill-rule:nonzero;stroke:#000000;stroke-width:1;stroke-miterlimit:4;stroke-opacity:1;stroke-dasharray:none"
         id="rect2568-6-8-1"
         width="30"
         height="10"
         x="-344.99997"
         y="417.36218"
         transform="scale(-1,1)" />
      <rect
         style="fill:#666666;fill-opacity:1;fill-rule:nonzero;stroke:#000000;stroke-width:1;stroke-miterlimit:4;stroke-opacity:1;stroke-dasharray:none"
         id="rect2568-6-6-9"
         width="30"
         height="10"
         x="-314.99997"
         y="417.36218"
         transform="scale(-1,1)" />
      <rect
         style="fill:#666666;fill-opacity:1;fill-rule:nonzero;stroke:#000000;stroke-width:1;stroke-miterlimit:4;stroke-opacity:1;stroke-dasharray:none"
         id="rect2568-6-9-8"
         width="30"
         height="10"
         x="-344.99997"
         y="517.36218"
         transform="scale(-1,1)" />
      <rect
         style="fill:#666666;fill-opacity:1;fill-rule:nonzero;stroke:#000000;stroke-width:1;stroke-miterlimit:4;stroke-opacity:1;stroke-dasharray:none"
         id="rect2568-6-95-6"
         width="30"
         height="10"
         x="-314.99997"
         y="517.36218"
         transform="scale(-1,1)" />
    </g>
  </g>
</svg>
