<?xml version="1.0" encoding="UTF-8" standalone="no"?>
<!-- Created with Inkscape (http://www.inkscape.org/) -->
<svg
   xmlns:dc="http://purl.org/dc/elements/1.1/"
   xmlns:cc="http://creativecommons.org/ns#"
   xmlns:rdf="http://www.w3.org/1999/02/22-rdf-syntax-ns#"
   xmlns:svg="http://www.w3.org/2000/svg"
   xmlns="http://www.w3.org/2000/svg"
   xmlns:xlink="http://www.w3.org/1999/xlink"
   xmlns:sodipodi="http://sodipodi.sourceforge.net/DTD/sodipodi-0.dtd"
   xmlns:inkscape="http://www.inkscape.org/namespaces/inkscape"
   width="623.07031"
   height="628"
   id="svg3338"
   sodipodi:version="0.32"
   inkscape:version="0.46+devel"
   sodipodi:docname="tank5.svg"
   inkscape:output_extension="org.inkscape.output.svg.inkscape"
   version="1.0">
  <defs
     id="defs3340">
    <linearGradient
       id="linearGradient4022">
      <stop
         id="stop4024"
         offset="0"
         style="stop-color:#808080;stop-opacity:0.31858407" />
      <stop
         id="stop4028"
         offset="1"
         style="stop-color:#ececec;stop-opacity:0" />
    </linearGradient>
    <linearGradient
       id="linearGradient3982">
      <stop
         id="stop3984"
         offset="0"
         style="stop-color:#ffffff;stop-opacity:1" />
      <stop
         style="stop-color:#cccccc;stop-opacity:1"
         offset="0.53470689"
         id="stop3986" />
      <stop
         id="stop3988"
         offset="1"
         style="stop-color:#b3b3b3;stop-opacity:1" />
    </linearGradient>
    <linearGradient
       inkscape:collect="always"
       id="linearGradient3974">
      <stop
         style="stop-color:#ffffff;stop-opacity:1"
         offset="0"
         id="stop3976" />
      <stop
         style="stop-color:#bdbdbd;stop-opacity:1"
         offset="1"
         id="stop3978" />
    </linearGradient>
    <linearGradient
       inkscape:collect="always"
       xlink:href="#linearGradient4022"
       id="linearGradient2508"
       gradientUnits="userSpaceOnUse"
       gradientTransform="matrix(0.995633,0,0,1.0003038,0.2719228,-0.2372974)"
       x1="660"
       y1="472.36218"
       x2="420"
       y2="472.36218" />
    <radialGradient
       inkscape:collect="always"
       xlink:href="#linearGradient3982"
       id="radialGradient2511"
       gradientUnits="userSpaceOnUse"
       gradientTransform="matrix(1.0040925,-1.9273905e-8,1.0001448e-7,3.6916419,-0.2699286,-1830.509)"
       cx="370"
       cy="644.87115"
       fx="370"
       fy="644.87115"
       r="314" />
    <radialGradient
       inkscape:collect="always"
       xlink:href="#linearGradient3974"
       id="radialGradient2514"
       gradientUnits="userSpaceOnUse"
       gradientTransform="matrix(0.6033006,1.0319617,-0.6669622,0.3899162,269.91644,-201.44949)"
       cx="320"
       cy="214.36382"
       fx="320"
       fy="214.36382"
       r="314.93414" />
    <linearGradient
       inkscape:collect="always"
       xlink:href="#linearGradient4022"
       id="linearGradient2510"
       gradientUnits="userSpaceOnUse"
       gradientTransform="matrix(0.995633,0,0,1.0003038,0.2719228,-0.2372974)"
       x1="660"
       y1="472.36218"
       x2="420"
       y2="472.36218" />
    <radialGradient
       inkscape:collect="always"
       xlink:href="#linearGradient3982"
       id="radialGradient2513"
       gradientUnits="userSpaceOnUse"
       gradientTransform="matrix(1.0040925,-1.9273905e-8,1.0001448e-7,3.6916419,-0.2699286,-1830.509)"
       cx="370"
       cy="644.87115"
       fx="370"
       fy="644.87115"
       r="314" />
    <radialGradient
       inkscape:collect="always"
       xlink:href="#linearGradient3974"
       id="radialGradient2516"
       gradientUnits="userSpaceOnUse"
       gradientTransform="matrix(0.6033006,1.0319617,-0.6669622,0.3899162,269.91644,-201.44949)"
       cx="320"
       cy="214.36382"
       fx="320"
       fy="214.36382"
       r="314.93414" />
  </defs>
  <sodipodi:namedview
     id="base"
     pagecolor="#ffffff"
     bordercolor="#666666"
     borderopacity="1.0"
     gridtolerance="10000"
     guidetolerance="10"
     objecttolerance="10"
     inkscape:pageopacity="0.0"
     inkscape:pageshadow="2"
     inkscape:zoom="0.84235669"
     inkscape:cx="311.53516"
     inkscape:cy="314"
     inkscape:document-units="px"
     inkscape:current-layer="layer1"
     showgrid="true"
     inkscape:window-width="1280"
     inkscape:window-height="744"
     inkscape:window-x="-4"
     inkscape:window-y="-4">
    <inkscape:grid
       type="xygrid"
       id="grid3348"
       empspacing="5"
       visible="true"
       enabled="false" />
  </sodipodi:namedview>
  <metadata
     id="metadata3343">
    <rdf:RDF>
      <cc:Work
         rdf:about="">
        <dc:format>image/svg+xml</dc:format>
        <dc:type
           rdf:resource="http://purl.org/dc/dcmitype/StillImage" />
        <dc:title>tank5</dc:title>
        <dc:date>2010-01-19</dc:date>
        <dc:publisher>
          <cc:Agent>
            <dc:title>Ecava</dc:title>
          </cc:Agent>
        </dc:publisher>
      </cc:Work>
    </rdf:RDF>
  </metadata>
  <g
     inkscape:label="Layer 1"
     inkscape:groupmode="layer"
     id="layer1"
     transform="translate(-60.523437,-156.11218)">
    <g
       id="g2520"
       inkscape:label="{&quot;attr&quot;:&quot;clone&quot;,&quot;map&quot;:[&quot;%s=tagName&quot;]}">
      <path
         sodipodi:ry="10"
         sodipodi:rx="0"
         sodipodi:cy="542.36218"
         sodipodi:cx="820"
         id="path3861"
         style="fill:#ffffff;fill-opacity:1;fill-rule:nonzero;stroke:#000000;stroke-width:8;stroke-linejoin:round;stroke-miterlimit:4;stroke-opacity:1;stroke-dasharray:none"
         sodipodi:type="arc"
         d="m 820,542.36218 a 0,10 0 1 1 0,0 0,10 0 1 1 0,0 z" />
      <rect
         ry="13.461194"
         rx="10"
         y="512.36218"
         x="220"
         height="20"
         width="0"
         id="rect3865"
         style="fill:none;stroke:#000000;stroke-width:8;stroke-linejoin:round;stroke-miterlimit:4;stroke-opacity:1;stroke-dasharray:none" />
      <path
         sodipodi:nodetypes="cccccscccccc"
         id="path3888"
         d="m 372.09375,157.61218 c -171.12,0 -310,80.64 -310,180 -0.09375,6.75 -0.09375,4.75 0,13.4375 l 0,373.09375 c -0.09375,8.21875 -0.09375,8.21875 0,13.46875 0,24.84 138.88001,45 310,45 171.11999,0 310,-20.16 310,-45 -0.09375,-5.25 -0.09375,-5.25 0,-13.46875 l 0,-373.09375 c -0.09375,-5.6875 -0.04278,-8.92754 0,-13.4375 0,-99.36 -138.88,-180 -310,-180 l 0,0 z"
         style="fill:url(#radialGradient2516);fill-opacity:1;stroke:#000000;stroke-width:3;stroke-linejoin:round;stroke-miterlimit:4;stroke-opacity:1;stroke-dasharray:none" />
      <path
         id="path3350-5"
         d="m 349.46804,322.36218 c -90.31497,1.13554 -181.00564,1.3317 -270.697023,13.16949 -4.247671,0.78154 -8.501296,1.83075 -12.488399,3.42595 -0.62226,81.98895 -0.027374,163.98502 -0.335683,245.97712 0.19137,51.50633 -0.377628,103.25143 0.68084,154.60792 8.943049,10.16994 23.565157,11.47438 35.804185,15.57777 56.41741,13.97082 114.83936,17.05095 172.72432,20.47526 106.64476,4.92193 214.0028,2.76407 319.84372,-11.47418 25.88156,-4.04818 52.12916,-8.6574 75.93448,-19.86424 4.44525,-2.27443 6.99134,-7.23329 5.46071,-12.10084 0.0313,-130.99978 0.44308,-262.36261 -0.2206,-393.13594 -18.3105,-6.54134 -38.36761,-6.13947 -57.54031,-8.58802 -89.50355,-7.51125 -179.41014,-7.9246 -269.16624,-8.07029 z"
         style="fill:url(#radialGradient2513);fill-opacity:1;stroke:none" />
      <path
         id="path4002"
         d="m 353.87722,320.98525 c -93.22164,0.90982 -186.9757,0.63821 -279.430635,13.72291 -4.767623,1.40641 -13.743551,1.96236 -12.178029,9.25278 -0.357692,127.71469 -0.543441,255.43576 0.074866,383.14763 0.697761,6.70654 -1.55138,15.38047 5.452935,19.151 12.638472,9.45334 29.03042,10.96872 43.830893,15.2657 67.70079,14.80205 137.37728,16.97973 206.43778,19.67672 97.72313,2.33972 196.11072,-0.722 292.60679,-16.3883 20.89495,-4.07614 42.60089,-8.32353 60.9057,-19.63713 7.14713,-7.24177 2.33815,-18.30844 3.64732,-27.13324 0.0589,-126.50713 0.39316,-253.0152 -0.22484,-379.5215 -25.62861,-9.03985 -53.25921,-8.10136 -79.96178,-11.15964 -80.25085,-5.67468 -160.73937,-6.68369 -241.161,-6.37693 z"
         style="fill:url(#linearGradient2510);fill-opacity:1;stroke:none" />
      <path
         id="path4030"
         d="m 372.09375,157.625 c -102.55326,0 -193.49779,28.96429 -249.9375,73.5625 C 164.1321,256.51185 223.80716,272.375 290,272.375 c 105.80259,0 194.99291,-40.45743 221.78125,-95.46875 C 469.79564,164.56944 422.3377,157.625 372.09375,157.625 z"
         style="opacity:0.31858407;fill:#ffffff;fill-opacity:1;fill-rule:nonzero;stroke:none" />
      <path
         id="rect4036"
         d="M 365,162.375 C 191.91001,209.15608 163.28413,312.81296 160.3125,325.96875 160.20804,325.97574 160.10446,325.99299 160,326 l 0,1.375 0,442.71875 c 26.50918,3.70064 53.23298,5.94986 80,7.5625 l 0,-451.84375 c 0,-1.14881 -0.11318,-2.24932 -0.3125,-3.3125 -1.07317,0.02718 -2.1456,0.06533 -3.21875,0.09375 L 240,322.375 c 0,-110 125,-160 125,-160 z"
         style="opacity:0.31858407;fill:#ffffff;fill-opacity:1;fill-rule:nonzero;stroke:none" />
      <path
         id="rect4040"
         d="m 365,162.375 c -82.47167,43.66147 -84.92703,152.89595 -85,159.375 -0.00224,0.19863 0,0.625 0,0.625 l 0,457.3125 c 12.6942,0.54093 25.39376,1.00525 38.0625,1.5 0.64505,0.01544 1.29239,0.01628 1.9375,0.03125 L 320,322.375 c 6.06092,-137.38075 45,-160 45,-160 z"
         style="opacity:0.31858407;fill:#ffffff;fill-opacity:1;fill-rule:nonzero;stroke:none" />
      <rect
         inkscape:label=""
         ry="13.461195"
         rx="10"
         y="324.11218"
         x="585.9986"
         height="422.67917"
         width="34.524818"
         id="rect2506"
         style="fill:none;stroke:#000000;stroke-width:5.99999952;stroke-miterlimit:4;stroke-opacity:1;stroke-dasharray:none" />
      <rect
         inkscape:label="{&quot;attr&quot;:&quot;bar&quot;,&quot;max&quot;:100,&quot;min&quot;:0,&quot;tag&quot;:&quot;%s&quot;}"
         ry="11.863368"
         rx="7.7173915"
         y="326.88025"
         x="587.8468"
         height="417.14301"
         width="30.828428"
         id="rect5743"
         style="opacity:1;fill:#0000f5;fill-opacity:0.96078431;stroke:none" />
    </g>
  </g>
</svg>
