<?xml version="1.0" encoding="UTF-8" standalone="no"?>
<!-- Created with Inkscape (http://www.inkscape.org/) -->
<svg
   xmlns:dc="http://purl.org/dc/elements/1.1/"
   xmlns:cc="http://creativecommons.org/ns#"
   xmlns:rdf="http://www.w3.org/1999/02/22-rdf-syntax-ns#"
   xmlns:svg="http://www.w3.org/2000/svg"
   xmlns="http://www.w3.org/2000/svg"
   xmlns:xlink="http://www.w3.org/1999/xlink"
   xmlns:sodipodi="http://sodipodi.sourceforge.net/DTD/sodipodi-0.dtd"
   xmlns:inkscape="http://www.inkscape.org/namespaces/inkscape"
   width="440"
   height="379.99997"
   id="svg2"
   sodipodi:version="0.32"
   inkscape:version="0.46+devel"
   sodipodi:docname="check valve.svg"
   inkscape:output_extension="org.inkscape.output.svg.inkscape"
   version="1.0">
  <defs
     id="defs4">
    <linearGradient
       id="linearGradient3813"
       inkscape:collect="always">
      <stop
         id="stop3815"
         offset="0"
         style="stop-color:#1a1a1a;stop-opacity:1" />
      <stop
         id="stop3817"
         offset="1"
         style="stop-color:#4d4d4d;stop-opacity:0;" />
    </linearGradient>
    <linearGradient
       id="linearGradient3419">
      <stop
         style="stop-color:#e6e6e6;stop-opacity:1"
         offset="0"
         id="stop3421" />
      <stop
         style="stop-color:#cccccc;stop-opacity:1"
         offset="0.5"
         id="stop3423" />
      <stop
         id="stop3425"
         offset="0.77806121"
         style="stop-color:#4d4d4d;stop-opacity:1" />
      <stop
         style="stop-color:#505050;stop-opacity:1"
         offset="1"
         id="stop3427" />
    </linearGradient>
    <linearGradient
       id="linearGradient3319">
      <stop
         id="stop3321"
         offset="0"
         style="stop-color:#e6e6e6;stop-opacity:1" />
      <stop
         id="stop3325"
         offset="0.5"
         style="stop-color:#cccccc;stop-opacity:1" />
      <stop
         style="stop-color:#808080;stop-opacity:1"
         offset="0.77806121"
         id="stop3327" />
      <stop
         id="stop3329"
         offset="1"
         style="stop-color:#585858;stop-opacity:0" />
    </linearGradient>
    <linearGradient
       id="linearGradient2511">
      <stop
         style="stop-color:#4d4d4d;stop-opacity:1"
         offset="0"
         id="stop2513" />
      <stop
         id="stop3289"
         offset="0.21938775"
         style="stop-color:#999999;stop-opacity:1" />
      <stop
         style="stop-color:#cccccc;stop-opacity:1"
         offset="0.5"
         id="stop3291" />
      <stop
         id="stop3293"
         offset="0.77806121"
         style="stop-color:#808080;stop-opacity:1" />
      <stop
         style="stop-color:#4d4d4d;stop-opacity:1"
         offset="1"
         id="stop2515" />
    </linearGradient>
    <linearGradient
       inkscape:collect="always"
       xlink:href="#linearGradient2511"
       id="linearGradient2517"
       x1="180"
       y1="532.36218"
       x2="180"
       y2="812.36218"
       gradientUnits="userSpaceOnUse"
       gradientTransform="translate(2.0203051,-127.27922)" />
    <linearGradient
       inkscape:collect="always"
       xlink:href="#linearGradient2511"
       id="linearGradient3301"
       x1="580"
       y1="812.36218"
       x2="580"
       y2="532.36218"
       gradientUnits="userSpaceOnUse"
       gradientTransform="translate(2.0203051,-127.27922)" />
    <linearGradient
       inkscape:collect="always"
       xlink:href="#linearGradient2511"
       id="linearGradient3309"
       x1="240"
       y1="752.36218"
       x2="240"
       y2="592.36218"
       gradientUnits="userSpaceOnUse"
       gradientTransform="translate(2.0203051,-127.27922)" />
    <radialGradient
       inkscape:collect="always"
       xlink:href="#linearGradient3419"
       id="radialGradient3317"
       cx="380"
       cy="675.2193"
       fx="380"
       fy="675.2193"
       r="120"
       gradientTransform="matrix(1.0000001,5.6081236e-7,-3.7710417e-7,1.0238091,2.2142498e-4,-16.076621)"
       gradientUnits="userSpaceOnUse" />
    <linearGradient
       inkscape:collect="always"
       xlink:href="#linearGradient2511"
       id="linearGradient3339"
       x1="320"
       y1="572.36218"
       x2="440"
       y2="572.36218"
       gradientUnits="userSpaceOnUse"
       gradientTransform="matrix(1.0833333,0,0,1,-29.646362,-127.27922)" />
    <linearGradient
       inkscape:collect="always"
       xlink:href="#linearGradient2511"
       id="linearGradient3347"
       x1="240"
       y1="492.36218"
       x2="520"
       y2="492.36218"
       gradientUnits="userSpaceOnUse"
       gradientTransform="translate(2.0203051,-127.27922)" />
    <radialGradient
       inkscape:collect="always"
       xlink:href="#linearGradient3319"
       id="radialGradient3417"
       gradientUnits="userSpaceOnUse"
       gradientTransform="matrix(1.0000001,5.6081236e-7,-3.7710417e-7,1.0238091,2.2142498e-4,-16.076621)"
       cx="380"
       cy="675.2193"
       fx="380"
       fy="675.2193"
       r="120" />
    <linearGradient
       gradientTransform="matrix(3.7142857,0,0,2.3333333,-630.12251,-837.09543)"
       y2="547.36218"
       x2="270"
       y1="532.36218"
       x1="270"
       gradientUnits="userSpaceOnUse"
       id="linearGradient3655-19"
       xlink:href="#linearGradient3813"
       inkscape:collect="always" />
  </defs>
  <sodipodi:namedview
     id="base"
     pagecolor="#ffffff"
     bordercolor="#666666"
     borderopacity="1.0"
     gridtolerance="10000"
     guidetolerance="10"
     objecttolerance="10"
     inkscape:pageopacity="0.0"
     inkscape:pageshadow="2"
     inkscape:zoom="1.3921054"
     inkscape:cx="220"
     inkscape:cy="189.99998"
     inkscape:document-units="px"
     inkscape:current-layer="layer1"
     showgrid="false"
     showguides="true"
     inkscape:guide-bbox="true"
     inkscape:window-width="1280"
     inkscape:window-height="744"
     inkscape:window-x="-4"
     inkscape:window-y="-4"
     inkscape:snap-global="true">
    <inkscape:grid
       type="xygrid"
       id="grid2483"
       empspacing="5"
       visible="true"
       enabled="true" />
  </sodipodi:namedview>
  <metadata
     id="metadata7">
    <rdf:RDF>
      <cc:Work
         rdf:about="">
        <dc:format>image/svg+xml</dc:format>
        <dc:type
           rdf:resource="http://purl.org/dc/dcmitype/StillImage" />
        <dc:title>checkValve</dc:title>
        <dc:date>2010-01-19</dc:date>
        <dc:publisher>
          <cc:Agent>
            <dc:title>Ecava</dc:title>
          </cc:Agent>
        </dc:publisher>
      </cc:Work>
    </rdf:RDF>
  </metadata>
  <g
     inkscape:label="Layer 1"
     inkscape:groupmode="layer"
     id="layer1"
     transform="translate(-162.02031,-305.08296)">
    <g
       id="g2603"
       inkscape:label="{&quot;attr&quot;:&quot;clone&quot;,&quot;map&quot;:[&quot;%s=tagName&quot;]}">
      <path
         inkscape:label="{&quot;attr&quot;:&quot;color&quot;,&quot;list&quot;:[{&quot;data&quot;:&quot;0&quot;,&quot;param&quot;:&quot;lime&quot;,&quot;tag&quot;:&quot;%s&quot;},{&quot;data&quot;:&quot;1&quot;,&quot;param&quot;:&quot;red&quot;,&quot;tag&quot;:&quot;%s&quot;}]}"
         id="path2535"
         d="m 269.52032,305.08296 c -1.385,0 -2.5,1.115 -2.5,2.5 l 0,2.5 -10,0 0,15 -15,0 0,80 75,0 0,35 0,4.59375 c -8.70067,5.75518 -16.63374,12.60932 -23.59375,20.40625 l -91.40625,0 0,-60 -40,0 0,60 0,160 0,60 40,0 0,-60 86.65625,0 c 22.00432,27.87487 55.63673,45.71875 93.34375,45.71875 37.70702,0 71.37068,-17.84388 93.375,-45.71875 l 86.625,0 0,60 40,0 0,-280 -40,0 0,60 -91.40625,0 c -6.9654,-7.80265 -14.88525,-14.6486 -23.59375,-20.40625 l 0,-4.59375 0,-35 75,0 0,-80 -15,0 0,-15 -10,0 0,-2.5 c 0,-1.385 -1.115,-2.5 -2.5,-2.5 l -10,0 c -1.385,0 -2.5,1.115 -2.5,2.5 l 0,2.5 -10,0 0,15 -30,0 0,-15 -10,0 0,-2.5 c 0,-1.385 -1.115,-2.5 -2.5,-2.5 l -10,0 c -1.385,0 -2.5,1.115 -2.5,2.5 l 0,2.5 -10,0 0,15 -50,0 0,-15 -10,0 0,-2.5 c 0,-1.385 -1.115,-2.5 -2.5,-2.5 l -10,0 c -1.385,0 -2.5,1.115 -2.5,2.5 l 0,2.5 -10,0 0,15 -30,0 0,-15 -10,0 0,-2.5 c 0,-1.385 -1.115,-2.5 -2.5,-2.5 l -10,0 z"
         style="opacity:1;fill:#f5f5f5;fill-opacity:1;fill-rule:nonzero;stroke:none" />
      <g
         transform="translate(2.9223633e-6,-2.036133e-6)"
         style="opacity:0.5192308"
         id="g2604">
        <path
           d="m 500,675.2193 c 0,67.81714 -53.76,122.85714 -120,122.85714 -66.24,0 -120,-55.04 -120,-122.85714 0,-67.81714 53.76,-122.85714 120,-122.85714 66.24,0 120,55.04 120,122.85714 z"
           sodipodi:ry="122.85714"
           sodipodi:rx="120"
           sodipodi:cy="675.2193"
           sodipodi:cx="380"
           id="path3411"
           style="opacity:1;fill:url(#radialGradient3317);fill-opacity:1;fill-rule:nonzero;stroke:none"
           sodipodi:type="arc"
           transform="translate(2.0203051,-127.27922)" />
        <rect
           style="opacity:1;fill:url(#linearGradient3309);fill-opacity:1;fill-rule:nonzero;stroke:none"
           id="rect2485"
           width="440"
           height="160"
           x="162.02031"
           y="465.08295"
           ry="0" />
        <rect
           style="opacity:1;fill:url(#linearGradient3301);fill-opacity:1;fill-rule:nonzero;stroke:none"
           id="rect2487"
           width="40"
           height="280"
           x="562.02032"
           y="405.08295"
           ry="0" />
        <rect
           style="opacity:1;fill:url(#linearGradient2517);fill-opacity:1;fill-rule:nonzero;stroke:none"
           id="rect2489"
           width="40"
           height="280"
           x="162.02031"
           y="405.08295" />
        <rect
           style="opacity:1;fill:url(#linearGradient3339);fill-opacity:1;fill-rule:nonzero;stroke:none"
           id="rect2503"
           width="130"
           height="100"
           x="317.02029"
           y="385.08295" />
        <rect
           style="opacity:1;fill:url(#linearGradient3655-19);fill-opacity:1;fill-rule:nonzero;stroke:none"
           id="rect3627-5"
           width="130"
           height="35"
           x="317.02029"
           y="405.08295"
           ry="0" />
        <path
           sodipodi:type="arc"
           style="opacity:1;fill:url(#radialGradient3417);fill-opacity:1;fill-rule:nonzero;stroke:none"
           id="path2499"
           sodipodi:cx="380"
           sodipodi:cy="675.2193"
           sodipodi:rx="120"
           sodipodi:ry="122.85714"
           d="m 500,675.2193 c 0,67.81714 -53.76,122.85714 -120,122.85714 -66.24,0 -120,-55.04 -120,-122.85714 0,-67.81714 53.76,-122.85714 120,-122.85714 66.24,0 120,55.04 120,122.85714 z"
           transform="matrix(1,0,0,0.9767442,2.0203051,-111.57643)" />
        <rect
           style="opacity:1;fill:url(#linearGradient3347);fill-opacity:1;fill-rule:nonzero;stroke:none"
           id="rect2505"
           width="280"
           height="80"
           x="242.02031"
           y="325.08295" />
        <path
           style="fill:none;stroke:#000000;stroke-width:4;stroke-linecap:butt;stroke-linejoin:miter;stroke-miterlimit:4;stroke-opacity:1;stroke-dasharray:none"
           d="m 242.02031,365.08296 280,0"
           id="path3441" />
        <rect
           rx="2.5"
           style="fill:#4d4d4d;fill-opacity:1;fill-rule:nonzero;stroke:none"
           id="rect3451"
           width="15"
           height="10"
           x="267.02029"
           y="305.08298"
           ry="2.5" />
        <rect
           style="fill:#9c9c9c;fill-opacity:1;fill-rule:nonzero;stroke:none"
           id="rect3443"
           width="15"
           height="15"
           x="267.02029"
           y="310.08298" />
        <rect
           style="fill:#c0c0c0;fill-opacity:1;fill-rule:nonzero;stroke:none"
           id="rect3447"
           width="10"
           height="15"
           x="257.02029"
           y="310.08298" />
        <rect
           style="fill:#7c7c7c;fill-opacity:1;fill-rule:nonzero;stroke:none"
           id="rect3449"
           width="10"
           height="15"
           x="282.02029"
           y="310.08298" />
        <rect
           style="fill:#4d4d4d;fill-opacity:1;fill-rule:nonzero;stroke:none"
           id="rect3451-7"
           width="15"
           height="10"
           x="482.02032"
           y="305.08298"
           ry="2.5"
           rx="2.5" />
        <rect
           style="fill:#9c9c9c;fill-opacity:1;fill-rule:nonzero;stroke:none"
           id="rect3443-5"
           width="15"
           height="15"
           x="482.02032"
           y="310.08298" />
        <rect
           style="fill:#c0c0c0;fill-opacity:1;fill-rule:nonzero;stroke:none"
           id="rect3447-7"
           width="10"
           height="15"
           x="472.02032"
           y="310.08298" />
        <rect
           style="fill:#7c7c7c;fill-opacity:1;fill-rule:nonzero;stroke:none"
           id="rect3449-82"
           width="10"
           height="15"
           x="497.02032"
           y="310.08298" />
        <rect
           style="fill:#4d4d4d;fill-opacity:1;fill-rule:nonzero;stroke:none"
           id="rect3451-2"
           width="15"
           height="10"
           x="332.02029"
           y="305.08298"
           ry="2.5"
           rx="2.5" />
        <rect
           style="fill:#9c9c9c;fill-opacity:1;fill-rule:nonzero;stroke:none"
           id="rect3443-0"
           width="15"
           height="15"
           x="332.02029"
           y="310.08298" />
        <rect
           style="fill:#c0c0c0;fill-opacity:1;fill-rule:nonzero;stroke:none"
           id="rect3447-8"
           width="10"
           height="15"
           x="322.02029"
           y="310.08298" />
        <rect
           style="fill:#7c7c7c;fill-opacity:1;fill-rule:nonzero;stroke:none"
           id="rect3449-9"
           width="10"
           height="15"
           x="347.02029"
           y="310.08298" />
        <rect
           style="fill:#4d4d4d;fill-opacity:1;fill-rule:nonzero;stroke:none"
           id="rect3451-5"
           width="15"
           height="10"
           x="417.02032"
           y="305.08298"
           ry="2.5"
           rx="2.5" />
        <rect
           style="fill:#9c9c9c;fill-opacity:1;fill-rule:nonzero;stroke:none"
           id="rect3443-27"
           width="15"
           height="15"
           x="417.02032"
           y="310.08298" />
        <rect
           style="fill:#c0c0c0;fill-opacity:1;fill-rule:nonzero;stroke:none"
           id="rect3447-6"
           width="10"
           height="15"
           x="407.02032"
           y="310.08298" />
        <rect
           style="fill:#7c7c7c;fill-opacity:1;fill-rule:nonzero;stroke:none"
           id="rect3449-7"
           width="10"
           height="15"
           x="432.02032"
           y="310.08298" />
      </g>
    </g>
  </g>
</svg>
