<?xml version="1.0" encoding="UTF-8" standalone="no"?>
<!-- Created with Inkscape (http://www.inkscape.org/) -->
<svg
   xmlns:dc="http://purl.org/dc/elements/1.1/"
   xmlns:cc="http://creativecommons.org/ns#"
   xmlns:rdf="http://www.w3.org/1999/02/22-rdf-syntax-ns#"
   xmlns:svg="http://www.w3.org/2000/svg"
   xmlns="http://www.w3.org/2000/svg"
   xmlns:xlink="http://www.w3.org/1999/xlink"
   xmlns:sodipodi="http://sodipodi.sourceforge.net/DTD/sodipodi-0.dtd"
   xmlns:inkscape="http://www.inkscape.org/namespaces/inkscape"
   width="732.63306"
   height="572.0824"
   id="svg3385"
   sodipodi:version="0.32"
   inkscape:version="0.46+devel"
   sodipodi:docname="drainvalve2.svg"
   inkscape:output_extension="org.inkscape.output.svg.inkscape"
   version="1.0">
  <defs
     id="defs3387">
    <linearGradient
       id="linearGradient4814">
      <stop
         id="stop4816"
         offset="0"
         style="stop-color:#666666;stop-opacity:1" />
      <stop
         style="stop-color:#e6e6e6;stop-opacity:1"
         offset="0.5"
         id="stop4818" />
      <stop
         id="stop4820"
         offset="1"
         style="stop-color:#666666;stop-opacity:1" />
    </linearGradient>
    <linearGradient
       id="linearGradient4766">
      <stop
         style="stop-color:#510e0e;stop-opacity:1;"
         offset="0"
         id="stop4768" />
      <stop
         id="stop4770"
         offset="0.5"
         style="stop-color:#a80707;stop-opacity:1;" />
      <stop
         style="stop-color:#d40000;stop-opacity:1"
         offset="1"
         id="stop4772" />
    </linearGradient>
    <linearGradient
       id="linearGradient4620">
      <stop
         id="stop4622"
         offset="0"
         style="stop-color:#ffffff;stop-opacity:1" />
      <stop
         style="stop-color:#ffffff;stop-opacity:1"
         offset="0.73976487"
         id="stop4624" />
      <stop
         id="stop4626"
         offset="1"
         style="stop-color:#ffffff;stop-opacity:0" />
    </linearGradient>
    <linearGradient
       id="linearGradient3567">
      <stop
         style="stop-color:#999999;stop-opacity:1"
         offset="0"
         id="stop3569" />
      <stop
         id="stop4345"
         offset="0.5"
         style="stop-color:#e6e6e6;stop-opacity:1" />
      <stop
         style="stop-color:#999999;stop-opacity:1"
         offset="1"
         id="stop3571" />
    </linearGradient>
    <linearGradient
       id="linearGradient3423">
      <stop
         style="stop-color:#510e0e;stop-opacity:1;"
         offset="0"
         id="stop3425" />
      <stop
         id="stop9279"
         offset="0.5"
         style="stop-color:#a80707;stop-opacity:1;" />
      <stop
         style="stop-color:#ff0000;stop-opacity:1"
         offset="1"
         id="stop3427" />
    </linearGradient>
    <linearGradient
       inkscape:collect="always"
       id="linearGradient3441">
      <stop
         style="stop-color:#cccccc;stop-opacity:1"
         offset="0"
         id="stop3443" />
      <stop
         style="stop-color:#4d4d4d;stop-opacity:1"
         offset="1"
         id="stop3445" />
    </linearGradient>
    <linearGradient
       inkscape:collect="always"
       id="linearGradient3449">
      <stop
         style="stop-color:#cccccc;stop-opacity:1"
         offset="0"
         id="stop3451" />
      <stop
         style="stop-color:#4d4d4d;stop-opacity:1"
         offset="1"
         id="stop3453" />
    </linearGradient>
    <linearGradient
       id="linearGradient3433">
      <stop
         style="stop-color:#cccccc;stop-opacity:1"
         offset="0"
         id="stop3435" />
      <stop
         style="stop-color:#4d4d4d;stop-opacity:1"
         offset="1"
         id="stop3437" />
    </linearGradient>
    <linearGradient
       id="linearGradient3567-45">
      <stop
         style="stop-color:#999999;stop-opacity:1"
         offset="0"
         id="stop3569-5" />
      <stop
         id="stop4345-1"
         offset="0.5"
         style="stop-color:#e6e6e6;stop-opacity:1" />
      <stop
         style="stop-color:#999999;stop-opacity:1"
         offset="1"
         id="stop3571-7" />
    </linearGradient>
    <linearGradient
       id="linearGradient3567-45-6">
      <stop
         style="stop-color:#999999;stop-opacity:1"
         offset="0"
         id="stop3569-5-0" />
      <stop
         id="stop4345-1-3"
         offset="0.5"
         style="stop-color:#e6e6e6;stop-opacity:1" />
      <stop
         style="stop-color:#999999;stop-opacity:1"
         offset="1"
         id="stop3571-7-6" />
    </linearGradient>
    <linearGradient
       id="linearGradient3567-5">
      <stop
         style="stop-color:#999999;stop-opacity:1"
         offset="0"
         id="stop3569-8" />
      <stop
         id="stop4345-8"
         offset="0.5"
         style="stop-color:#e6e6e6;stop-opacity:1" />
      <stop
         style="stop-color:#999999;stop-opacity:1"
         offset="1"
         id="stop3571-1" />
    </linearGradient>
    <radialGradient
       inkscape:collect="always"
       xlink:href="#linearGradient4620"
       id="radialGradient4632"
       gradientUnits="userSpaceOnUse"
       gradientTransform="matrix(1.0822216e-7,-0.9999999,0.969697,3.5669737e-7,-60.623995,702.36203)"
       cx="315"
       cy="387.36218"
       fx="315"
       fy="387.36218"
       r="85" />
    <mask
       maskUnits="userSpaceOnUse"
       id="mask4628">
      <path
         transform="matrix(0.3896036,-0.5986761,0.9156223,0.5958644,16.592734,-70.601488)"
         d="m 400,387.36218 a 85,85 0 1 1 -170,0 85,85 0 1 1 170,0 z"
         sodipodi:ry="85"
         sodipodi:rx="85"
         sodipodi:cy="387.36218"
         sodipodi:cx="315"
         id="path4630"
         style="opacity:1;fill:url(#radialGradient4632);fill-opacity:1;fill-rule:nonzero;stroke:none"
         sodipodi:type="arc" />
    </mask>
    <linearGradient
       id="linearGradient3567-45-8">
      <stop
         style="stop-color:#999999;stop-opacity:1"
         offset="0"
         id="stop3569-5-2" />
      <stop
         id="stop4345-1-4"
         offset="0.5"
         style="stop-color:#e6e6e6;stop-opacity:1" />
      <stop
         style="stop-color:#999999;stop-opacity:1"
         offset="1"
         id="stop3571-7-5" />
    </linearGradient>
    <linearGradient
       inkscape:collect="always"
       xlink:href="#linearGradient3567-45-8"
       id="linearGradient4977"
       gradientUnits="userSpaceOnUse"
       gradientTransform="matrix(0.5,0,0,0.75,-684.00206,10.728368)"
       x1="270"
       y1="632.36218"
       x2="490"
       y2="632.36218" />
    <linearGradient
       inkscape:collect="always"
       xlink:href="#linearGradient3567-45"
       id="linearGradient4982"
       gradientUnits="userSpaceOnUse"
       gradientTransform="matrix(0.5,0,0,0.75,-684.00206,-39.271642)"
       x1="270"
       y1="632.36218"
       x2="490"
       y2="632.36218" />
    <linearGradient
       inkscape:collect="always"
       xlink:href="#linearGradient3567"
       id="linearGradient4986"
       gradientUnits="userSpaceOnUse"
       gradientTransform="matrix(1,0,0,1.0714285,-874.00206,-206.10234)"
       x1="300"
       y1="412.36218"
       x2="460"
       y2="412.36218" />
    <linearGradient
       inkscape:collect="always"
       xlink:href="#linearGradient4814"
       id="linearGradient4989"
       gradientUnits="userSpaceOnUse"
       gradientTransform="matrix(1,0,0,7.1428553e-2,-874.00206,426.25985)"
       x1="300"
       y1="412.36218"
       x2="460"
       y2="412.36218" />
    <radialGradient
       inkscape:collect="always"
       xlink:href="#linearGradient3441"
       id="radialGradient5030"
       gradientUnits="userSpaceOnUse"
       gradientTransform="matrix(0.529412,-3.9584746e-8,-1.1328202e-5,6.6627445,-623.85241,-1995.8272)"
       cx="250"
       cy="227.8125"
       fx="250"
       fy="227.8125"
       r="42.5" />
    <linearGradient
       inkscape:collect="always"
       xlink:href="#linearGradient3567-45"
       id="linearGradient5043"
       gradientUnits="userSpaceOnUse"
       gradientTransform="matrix(1,0,0,0.7619048,115.86001,-302.43427)"
       x1="300"
       y1="412.36218"
       x2="460"
       y2="412.36218" />
    <radialGradient
       inkscape:collect="always"
       xlink:href="#linearGradient3423"
       id="radialGradient2660"
       gradientUnits="userSpaceOnUse"
       gradientTransform="matrix(2.5680978,-3.5169255e-6,0,0.1166613,-1131.7375,-707.79263)"
       cx="250.04195"
       cy="150.83105"
       fx="250.04195"
       fy="150.83105"
       r="242.5" />
    <radialGradient
       inkscape:collect="always"
       xlink:href="#linearGradient3449"
       id="radialGradient2664"
       gradientUnits="userSpaceOnUse"
       gradientTransform="matrix(-5.7056783e-5,1.8860246,-0.9414418,-8.2801114e-8,-364.09851,-1062.5727)"
       cx="250"
       cy="134.00002"
       fx="250"
       fy="134.00002"
       r="52.5" />
    <radialGradient
       inkscape:collect="always"
       xlink:href="#linearGradient3433"
       id="radialGradient2667"
       gradientUnits="userSpaceOnUse"
       gradientTransform="matrix(0.7908112,8.9535803e-8,2.7431468e-5,2.4895527,-689.94994,-986.42432)"
       cx="252.50002"
       cy="153.12495"
       fx="252.50002"
       fy="153.12495"
       r="62.5" />
    <linearGradient
       inkscape:collect="always"
       xlink:href="#linearGradient4766"
       id="linearGradient2670"
       gradientUnits="userSpaceOnUse"
       gradientTransform="matrix(0,-0.9885139,-1.4145186,0,803.2443,737.39449)"
       x1="256.33673"
       y1="80.05854"
       x2="256.61703"
       y2="142.70638" />
    <linearGradient
       inkscape:collect="always"
       xlink:href="#linearGradient3567-45-6"
       id="linearGradient2573"
       gradientUnits="userSpaceOnUse"
       gradientTransform="translate(-530.04941,151.39075)"
       x1="270"
       y1="632.36218"
       x2="490"
       y2="632.36218" />
    <linearGradient
       inkscape:collect="always"
       xlink:href="#linearGradient3567-5"
       id="linearGradient2576"
       gradientUnits="userSpaceOnUse"
       gradientTransform="matrix(1,0,0,0.5714286,-530.04941,413.83167)"
       x1="300"
       y1="412.36218"
       x2="460"
       y2="412.36218" />
  </defs>
  <sodipodi:namedview
     id="base"
     pagecolor="#ffffff"
     bordercolor="#666666"
     borderopacity="1.0"
     gridtolerance="10000"
     guidetolerance="10"
     objecttolerance="10"
     inkscape:pageopacity="0.0"
     inkscape:pageshadow="2"
     inkscape:zoom="0.92469197"
     inkscape:cx="366.31653"
     inkscape:cy="286.0412"
     inkscape:document-units="px"
     inkscape:current-layer="layer1"
     showgrid="false"
     inkscape:snap-global="true"
     inkscape:window-width="1280"
     inkscape:window-height="744"
     inkscape:window-x="-4"
     inkscape:window-y="-4">
    <inkscape:grid
       type="xygrid"
       id="grid3563"
       empspacing="5"
       visible="true"
       enabled="true" />
  </sodipodi:namedview>
  <metadata
     id="metadata3390">
    <rdf:RDF>
      <cc:Work
         rdf:about="">
        <dc:format>image/svg+xml</dc:format>
        <dc:type
           rdf:resource="http://purl.org/dc/dcmitype/StillImage" />
        <dc:title>drainValve2</dc:title>
        <dc:date>2010-01-19</dc:date>
        <dc:publisher>
          <cc:Agent>
            <dc:title>Ecava</dc:title>
          </cc:Agent>
        </dc:publisher>
      </cc:Work>
    </rdf:RDF>
  </metadata>
  <g
     inkscape:label="Layer 1"
     inkscape:groupmode="layer"
     id="layer1"
     transform="translate(0,-252.36218)">
    <rect
       style="fill:url(#radialGradient5030);fill-opacity:1;stroke:none;display:inline"
       id="rect3407"
       width="45"
       height="162.82082"
       x="-514.00208"
       y="-570.00006"
       ry="5"
       rx="0"
       transform="matrix(0,-1,-1,0,0,0)" />
    <g
       id="g3456"
       inkscape:label="{&quot;attr&quot;:&quot;slider&quot;,&quot;max&quot;:100,&quot;min&quot;:0,&quot;readonly&quot;:1,&quot;tag&quot;:&quot;tagName&quot;}">
      <path
         sodipodi:nodetypes="cscccccccc"
         id="rect2501-7"
         d="m 697.15542,426.0125 -15.70455,0 c -18.10581,0 -55.72834,18.44407 -55.72834,41.34385 l 1.00456,21.76175 c 0,22.89997 23.8322,21.58177 54.72378,21.58177 l 15.70455,0 0,-84.36376 c 0,-0.10937 -0.00083,-0.21443 0,-0.32361 l 0,0 0,0 z"
         style="fill:#780a0a;fill-opacity:1;stroke:none;display:inline" />
      <path
         sodipodi:nodetypes="cscccccccc"
         id="rect2501"
         d="m 690.08283,554.51925 -14.14947,0 c -16.31291,0 -50.21002,-18.29949 -50.21002,-41.01987 l 0.90509,-21.59114 c 0,-22.72038 21.47229,-21.41249 49.30493,-21.41249 l 14.14947,0 0,83.70271 c 0,0.10842 -0.00075,0.21273 0,0.32098 l 0,0 0,0 z"
         style="fill:#660c0c;fill-opacity:1;stroke:none;display:inline" />
      <path
         id="rect2493"
         d="m 732.51838,700.51049 c 0,14.95896 -12.61751,26.99875 -28.29036,26.99875 -15.67286,0 -28.29037,-12.03979 -28.29037,-26.99875 l 0,-81.73768 c -31.34574,0 -56.58076,-29.03626 -56.58076,-65.11838 l 0,-126.77693 c 0,-36.08211 25.23502,-65.11837 56.58076,-65.11837 l 0,-81.73768 c 0,-14.95896 12.61751,-26.99875 28.29037,-26.99875 15.67285,0 28.29036,12.03979 28.29036,26.99875 l 0,146.85605 0,126.77693 0,146.85606 z M 675.93765,595.17188 c -0.00043,-0.10318 0,-0.20524 0,-0.30881 l 0,-79.88426 -7.91248,0 c -15.53533,0 -27.4947,-1.26295 -27.4947,20.41902 l -0.53045,20.60423 c 0,21.68196 18.91978,39.16982 28.02515,39.16982 l 7.91248,0 z m 0,-129.61875 0,-79.88427 c 0,-0.10356 -0.00043,-0.20562 0,-0.30899 l -7.91248,0 c -9.10537,0 -28.02515,17.48805 -28.02515,39.16983 l 0.53045,20.60441 c 0,21.68197 11.95937,20.41902 27.4947,20.41902 l 7.91248,0 z"
         style="fill:url(#linearGradient2670);fill-opacity:1;stroke:none;display:inline" />
      <rect
         transform="matrix(0,-1,-1,0,0,0)"
         ry="5"
         rx="0"
         y="-619.35693"
         x="-549.57672"
         height="21.217777"
         width="118.62166"
         id="rect3403"
         style="fill:url(#radialGradient2667);fill-opacity:1;stroke:none;display:inline" />
      <rect
         transform="matrix(0,-1,-1,0,0,0)"
         rx="0"
         ry="5"
         y="-598.13922"
         x="-539.69171"
         height="28.290371"
         width="98.851387"
         id="rect3405"
         style="fill:url(#radialGradient2664);fill-opacity:1;stroke:none;display:inline" />
      <path
         sodipodi:nodetypes="cscsc"
         id="path4824-78"
         d="m 497.50993,513.43792 c 0,0 4.28572,-13.57142 5.35714,-24.99999 1.07143,-11.42857 0.71429,-20.35714 0.71429,-20.35714 0,0 3.57142,0.89286 2.14285,20.53571 -1.42857,19.64285 -7.5,25.53571 -8.21428,24.82142 z"
         style="fill:#4d4d4d;stroke:none" />
      <rect
         transform="matrix(0,-1,-1,0,0,0)"
         rx="25.232784"
         ry="27.601524"
         y="-732.63306"
         x="-726.84882"
         height="56.580742"
         width="474.48663"
         id="rect3409"
         style="fill:url(#radialGradient2660);fill-opacity:1;stroke:none;display:inline" />
      <path
         id="rect3457"
         d="m 729.68937,281.16755 c 0,-10.28339 -4.61997,-19.09071 -11.31614,-23.20242 -6.69619,4.11171 -11.31614,12.91903 -11.31614,23.20242 l 0,418.19646 c 0,10.28339 4.61995,19.09071 11.31614,23.20261 6.69617,-4.1119 11.31614,-12.91922 11.31614,-23.20261 l 0,-418.19646 z"
         style="opacity:0.29807691;fill:#ececec;fill-opacity:1;stroke:none;display:inline" />
      <path
         sodipodi:nodetypes="cscsc"
         id="path4824"
         d="m 544.64286,514.3592 c 0,0 4.28572,-13.57143 5.35714,-25 1.07143,-11.42857 0.71429,-20.35714 0.71429,-20.35714 0,0 3.57142,0.89286 2.14285,20.53571 -1.42857,19.64286 -7.5,25.53572 -8.21428,24.82143 z"
         style="fill:#4d4d4d;stroke:none" />
      <path
         sodipodi:nodetypes="cscsc"
         id="path4824-8"
         d="m 536.61707,514.15222 c 0,0 4.28572,-13.57143 5.35714,-25 1.07143,-11.42857 0.71429,-20.35714 0.71429,-20.35714 0,0 3.57142,0.89286 2.14285,20.53571 -1.42857,19.64286 -7.5,25.53572 -8.21428,24.82143 z"
         style="fill:#4d4d4d;stroke:none" />
      <path
         sodipodi:nodetypes="cscsc"
         id="path4824-2"
         d="m 528.75992,513.97364 c 0,0 4.28572,-13.57143 5.35714,-25 1.07143,-11.42857 0.71429,-20.35714 0.71429,-20.35714 0,0 3.57142,0.89286 2.14285,20.53571 -1.42857,19.64286 -7.5,25.53572 -8.21428,24.82143 z"
         style="fill:#4d4d4d;stroke:none" />
      <path
         sodipodi:nodetypes="cscsc"
         id="path4824-7"
         d="m 505.00993,513.79507 c 0,0 4.28572,-13.57143 5.35714,-25 1.07143,-11.42857 0.71429,-20.35714 0.71429,-20.35714 0,0 3.57142,0.89286 2.14285,20.53571 -1.42857,19.64286 -7.5,25.53572 -8.21428,24.82143 z"
         style="fill:#4d4d4d;stroke:none" />
      <path
         sodipodi:nodetypes="cscsc"
         id="path4824-0"
         d="m 512.86707,513.43792 c 0,0 4.28572,-13.57143 5.35714,-25 1.07143,-11.42857 0.71429,-20.35714 0.71429,-20.35714 0,0 3.57142,0.89286 2.14285,20.53571 -1.42857,19.64286 -7.5,25.53572 -8.21428,24.82143 z"
         style="fill:#4d4d4d;stroke:none" />
      <path
         sodipodi:nodetypes="cscsc"
         id="path4824-82"
         d="m 520.36707,514.15222 c 0,0 4.28572,-13.57143 5.35714,-25 1.07143,-11.42857 0.71429,-20.35714 0.71429,-20.35714 0,0 3.57142,0.89286 2.14285,20.53571 -1.42857,19.64286 -7.5,25.53572 -8.21428,24.82143 z"
         style="fill:#4d4d4d;stroke:none" />
      <path
         sodipodi:nodetypes="cscsc"
         id="path4824-27"
         d="m 551.4385,514.15221 c 0,0 4.28572,-13.57142 5.35714,-24.99999 1.07143,-11.42857 0.71429,-20.35714 0.71429,-20.35714 0,0 3.57142,0.89286 2.14285,20.53571 -1.42857,19.64285 -7.5,25.53571 -8.21428,24.82142 z"
         style="fill:#4d4d4d;stroke:none" />
    </g>
    <use
       x="0"
       y="0"
       xlink:href="#g3456"
       id="use3473"
       transform="translate(-99.410273,0)"
       width="732.63306"
       height="572.0824" />
    <g
       id="g2578">
      <rect
         transform="matrix(0.8301091,-0.557601,0.557601,0.8301091,0,0)"
         ry="0"
         rx="0"
         y="523.75293"
         x="-230.04941"
         height="240"
         width="160"
         id="rect3565-1"
         style="fill:url(#linearGradient2576);fill-opacity:1;fill-rule:nonzero;stroke:none" />
      <rect
         transform="matrix(0.8301091,-0.557601,0.557601,0.8301091,0,0)"
         y="763.75293"
         x="-260.04941"
         height="40"
         width="220"
         id="rect4508-4"
         style="fill:url(#linearGradient2573);fill-opacity:1;fill-rule:nonzero;stroke:none" />
      <rect
         transform="matrix(0,-1,1,0,0,0)"
         ry="0"
         rx="0"
         y="440"
         x="-574.00208"
         height="30"
         width="160"
         id="rect3565-2"
         style="fill:url(#linearGradient4989);fill-opacity:1;fill-rule:nonzero;stroke:none" />
      <rect
         transform="matrix(0,-1,1,0,0,0)"
         ry="0"
         rx="0"
         y="0"
         x="-574.00208"
         height="450"
         width="160"
         id="rect3565"
         style="fill:url(#linearGradient4986);fill-opacity:1;fill-rule:nonzero;stroke:none" />
      <rect
         mask="url(#mask4628)"
         style="fill:url(#linearGradient5043);fill-opacity:1;fill-rule:nonzero;stroke:none"
         id="rect4459"
         width="160"
         height="320"
         x="415.86002"
         y="-155.8726"
         rx="0"
         ry="0"
         inkscape:transform-center-x="32.994946"
         inkscape:transform-center-y="116.92099"
         transform="matrix(0.8381465,-0.5454451,0.5454451,0.8381465,-193.37233,869.96145)" />
      <rect
         transform="matrix(0,-1,1,0,0,0)"
         y="420"
         x="-549.00208"
         height="30"
         width="110"
         id="rect4508"
         style="fill:url(#linearGradient4982);fill-opacity:1;fill-rule:nonzero;stroke:none" />
      <rect
         transform="matrix(0,-1,1,0,0,0)"
         y="420"
         x="-594.00208"
         height="30"
         width="60"
         id="rect4636"
         style="fill:#a0a0a0;fill-opacity:1;fill-rule:nonzero;stroke:none" />
      <rect
         transform="matrix(0,-1,1,0,0,0)"
         y="420"
         x="-454.00204"
         height="30"
         width="60"
         id="rect4638"
         style="fill:#999999;fill-opacity:1;fill-rule:nonzero;stroke:none" />
      <rect
         transform="matrix(0,-1,1,0,0,0)"
         y="470"
         x="-549.00208"
         height="30"
         width="110"
         id="rect4508-9"
         style="fill:url(#linearGradient4977);fill-opacity:1;fill-rule:nonzero;stroke:none" />
      <rect
         transform="matrix(0,-1,1,0,0,0)"
         y="470"
         x="-594.00208"
         height="30"
         width="60"
         id="rect4636-9"
         style="fill:#a0a0a0;fill-opacity:1;fill-rule:nonzero;stroke:none" />
      <rect
         transform="matrix(0,-1,1,0,0,0)"
         y="470"
         x="-454.00204"
         height="30"
         width="60"
         id="rect4638-8"
         style="fill:#999999;fill-opacity:1;fill-rule:nonzero;stroke:none" />
      <rect
         transform="matrix(0,-1,1,0,0,0)"
         y="450"
         x="-574.00208"
         height="20"
         width="160"
         id="rect4822"
         style="opacity:0.24336285;fill:#666666;fill-opacity:1;fill-rule:nonzero;stroke:none" />
    </g>
  </g>
</svg>
