<?xml version="1.0" encoding="UTF-8" standalone="no"?>
<!-- Created with Inkscape (http://www.inkscape.org/) -->
<svg
   xmlns:dc="http://purl.org/dc/elements/1.1/"
   xmlns:cc="http://creativecommons.org/ns#"
   xmlns:rdf="http://www.w3.org/1999/02/22-rdf-syntax-ns#"
   xmlns:svg="http://www.w3.org/2000/svg"
   xmlns="http://www.w3.org/2000/svg"
   xmlns:xlink="http://www.w3.org/1999/xlink"
   xmlns:sodipodi="http://sodipodi.sourceforge.net/DTD/sodipodi-0.dtd"
   xmlns:inkscape="http://www.inkscape.org/namespaces/inkscape"
   width="445"
   height="445"
   id="svg2"
   sodipodi:version="0.32"
   inkscape:version="0.46+devel"
   version="1.0"
   sodipodi:docname="valvetop.svg"
   inkscape:output_extension="org.inkscape.output.svg.inkscape">
  <defs
     id="defs4">
    <linearGradient
       id="linearGradient2619">
      <stop
         style="stop-color:#ff0000;stop-opacity:1;"
         offset="0"
         id="stop2621" />
      <stop
         id="stop2623"
         offset="0.81352162"
         style="stop-color:#550000;stop-opacity:1" />
      <stop
         style="stop-color:#ff0000;stop-opacity:1"
         offset="0.91442472"
         id="stop3405" />
      <stop
         style="stop-color:#800000;stop-opacity:1"
         offset="1"
         id="stop2629" />
    </linearGradient>
    <radialGradient
       inkscape:collect="always"
       xlink:href="#linearGradient2619"
       id="radialGradient2607"
       cx="250"
       cy="250"
       fx="250"
       fy="250"
       r="222.5"
       gradientUnits="userSpaceOnUse"
       gradientTransform="matrix(0.9887639,-1.2408463e-8,4.5730757e-6,1,2.8079304,5.8629987e-6)" />
  </defs>
  <sodipodi:namedview
     id="base"
     pagecolor="#ffffff"
     bordercolor="#666666"
     borderopacity="1.0"
     gridtolerance="10000"
     guidetolerance="10"
     objecttolerance="10"
     inkscape:pageopacity="0.0"
     inkscape:pageshadow="2"
     inkscape:zoom="1.188764"
     inkscape:cx="222.49999"
     inkscape:cy="222.49999"
     inkscape:document-units="px"
     inkscape:current-layer="layer1"
     showgrid="true"
     inkscape:window-width="1280"
     inkscape:window-height="744"
     inkscape:window-x="-4"
     inkscape:window-y="-4">
    <inkscape:grid
       type="xygrid"
       id="grid2483"
       empspacing="5"
       visible="true"
       enabled="false" />
  </sodipodi:namedview>
  <metadata
     id="metadata7">
    <rdf:RDF>
      <cc:Work
         rdf:about="">
        <dc:format>image/svg+xml</dc:format>
        <dc:type
           rdf:resource="http://purl.org/dc/dcmitype/StillImage" />
        <dc:title>valveTop</dc:title>
        <dc:date>2010-01-19</dc:date>
        <dc:publisher>
          <cc:Agent>
            <dc:title>Ecava</dc:title>
          </cc:Agent>
        </dc:publisher>
        <dc:description>no animation</dc:description>
      </cc:Work>
    </rdf:RDF>
  </metadata>
  <g
     inkscape:label="Layer 1"
     inkscape:groupmode="layer"
     id="layer1"
     style="display:inline"
     transform="translate(-27.5,-27.5)">
    <g
       id="g2492">
      <path
         d="M 400,390 C 380.03999,411.38573 280.96757,299.2114 251.73171,300.21953 222.49585,301.22766 131.38573,419.96002 110,400 88.614269,380.03999 200.7886,280.96757 199.78047,251.73171 198.77234,222.49585 80.039984,131.38573 99.999999,110 119.96001,88.614269 219.03243,200.7886 248.26829,199.78047 277.50415,198.77234 368.61427,80.039984 390,99.999999 411.38573,119.96001 299.2114,219.03243 300.21953,248.26829 301.22766,277.50415 419.96002,368.61427 400,390 z"
         inkscape:randomized="0"
         inkscape:rounded="0.16876985"
         inkscape:flatsided="false"
         sodipodi:arg2="1.5363272"
         sodipodi:arg1="0.75092906"
         sodipodi:r2="50.249378"
         sodipodi:r1="205.18285"
         sodipodi:cy="250"
         sodipodi:cx="250"
         sodipodi:sides="4"
         id="path2487"
         style="opacity:1;fill:#ff0000;fill-opacity:1;stroke:#000000;stroke-width:5;stroke-linejoin:miter;stroke-miterlimit:4;stroke-opacity:1;stroke-dasharray:none"
         sodipodi:type="star" />
      <path
         id="path2495"
         d="M 250,30 C 128.56,30 30,128.56 30,250 30,371.44 128.56,470 250,470 371.44,470 470,371.44 470,250 470,128.56 371.44,30 250,30 z m 0,40 c 99.36,0 180,80.64 180,180 0,99.36 -80.64,180 -180,180 C 150.64,430 70,349.36 70,250 70,150.64 150.64,70 250,70 z"
         style="opacity:1;fill:url(#radialGradient2607);fill-opacity:1;stroke:#000000;stroke-width:5;stroke-linejoin:miter;stroke-miterlimit:4;stroke-opacity:1;stroke-dasharray:none" />
      <path
         d="m 310,250 c 0,33.12 -26.88,60 -60,60 -33.12,0 -60,-26.88 -60,-60 0,-33.12 26.88,-60 60,-60 33.12,0 60,26.88 60,60 z"
         sodipodi:ry="60"
         sodipodi:rx="60"
         sodipodi:cy="250"
         sodipodi:cx="250"
         id="path2498"
         style="opacity:1;fill:#aa0000;fill-opacity:1;stroke:#000000;stroke-width:5;stroke-linejoin:miter;stroke-miterlimit:4;stroke-opacity:1;stroke-dasharray:none"
         sodipodi:type="arc" />
      <path
         d="m 290,250 c 0,22.08 -17.92,40 -40,40 -22.08,0 -40,-17.92 -40,-40 0,-22.08 17.92,-40 40,-40 22.08,0 40,17.92 40,40 z"
         sodipodi:ry="40"
         sodipodi:rx="40"
         sodipodi:cy="250"
         sodipodi:cx="250"
         id="path2553"
         style="opacity:1;fill:#ff0000;fill-opacity:1;stroke:#000000;stroke-width:5;stroke-linejoin:miter;stroke-miterlimit:4;stroke-opacity:1;stroke-dasharray:none"
         sodipodi:type="arc" />
    </g>
  </g>
  <g
     inkscape:groupmode="layer"
     id="layer2"
     style="display:inline"
     transform="translate(-27.5,-27.5)" />
</svg>
