<?xml version="1.0" encoding="UTF-8" standalone="no"?>
<!-- Created with Inkscape (http://www.inkscape.org/) -->
<svg
   xmlns:dc="http://purl.org/dc/elements/1.1/"
   xmlns:cc="http://creativecommons.org/ns#"
   xmlns:rdf="http://www.w3.org/1999/02/22-rdf-syntax-ns#"
   xmlns:svg="http://www.w3.org/2000/svg"
   xmlns="http://www.w3.org/2000/svg"
   xmlns:xlink="http://www.w3.org/1999/xlink"
   xmlns:sodipodi="http://sodipodi.sourceforge.net/DTD/sodipodi-0.dtd"
   xmlns:inkscape="http://www.inkscape.org/namespaces/inkscape"
   width="480"
   height="230"
   id="svg2"
   sodipodi:version="0.32"
   inkscape:version="0.46+devel"
   version="1.0"
   sodipodi:docname="valve2.svg"
   inkscape:output_extension="org.inkscape.output.svg.inkscape">
  <defs
     id="defs4">
    <linearGradient
       id="linearGradient9281">
      <stop
         id="stop9283"
         offset="0"
         style="stop-color:#510e0e;stop-opacity:1;" />
      <stop
         style="stop-color:#a80707;stop-opacity:1;"
         offset="0.5"
         id="stop9285" />
      <stop
         id="stop9287"
         offset="1"
         style="stop-color:#800000;stop-opacity:1" />
    </linearGradient>
    <linearGradient
       inkscape:collect="always"
       id="linearGradient3449">
      <stop
         style="stop-color:#cccccc;stop-opacity:1"
         offset="0"
         id="stop3451" />
      <stop
         style="stop-color:#4d4d4d;stop-opacity:1"
         offset="1"
         id="stop3453" />
    </linearGradient>
    <linearGradient
       inkscape:collect="always"
       id="linearGradient3441">
      <stop
         style="stop-color:#cccccc;stop-opacity:1"
         offset="0"
         id="stop3443" />
      <stop
         style="stop-color:#4d4d4d;stop-opacity:1"
         offset="1"
         id="stop3445" />
    </linearGradient>
    <linearGradient
       id="linearGradient3433">
      <stop
         style="stop-color:#cccccc;stop-opacity:1"
         offset="0"
         id="stop3435" />
      <stop
         style="stop-color:#4d4d4d;stop-opacity:1"
         offset="1"
         id="stop3437" />
    </linearGradient>
    <linearGradient
       inkscape:collect="always"
       xlink:href="#linearGradient9281"
       id="linearGradient3431"
       x1="260"
       y1="70"
       x2="260"
       y2="140"
       gradientUnits="userSpaceOnUse" />
    <radialGradient
       inkscape:collect="always"
       xlink:href="#linearGradient3433"
       id="radialGradient3439"
       cx="252.50002"
       cy="153.12495"
       fx="252.50002"
       fy="153.12495"
       r="62.5"
       gradientTransform="matrix(0.8,6.3297722e-8,2.7750211e-5,1.76,47.995749,-129.49994)"
       gradientUnits="userSpaceOnUse" />
    <radialGradient
       inkscape:collect="always"
       xlink:href="#linearGradient3441"
       id="radialGradient3447"
       cx="250"
       cy="227.8125"
       fx="250"
       fy="227.8125"
       r="42.5"
       gradientTransform="matrix(0.9411767,-2.7958622e-8,-2.0139026e-5,4.7058824,14.71041,-842.05883)"
       gradientUnits="userSpaceOnUse" />
    <radialGradient
       inkscape:collect="always"
       xlink:href="#linearGradient3449"
       id="radialGradient3455"
       cx="250"
       cy="134.00002"
       fx="250"
       fy="134.00002"
       r="52.5"
       gradientTransform="matrix(-5.7719761e-5,1.3333333,-0.952381,-5.8536606e-8,377.6335,-183.33332)"
       gradientUnits="userSpaceOnUse" />
    <linearGradient
       id="linearGradient3423-7">
      <stop
         style="stop-color:#510e0e;stop-opacity:1;"
         offset="0"
         id="stop3425-4" />
      <stop
         id="stop9279-0"
         offset="0.5"
         style="stop-color:#a80707;stop-opacity:1;" />
      <stop
         style="stop-color:#ff0000;stop-opacity:1"
         offset="1"
         id="stop3427-9" />
    </linearGradient>
    <radialGradient
       r="242.5"
       fy="150.83105"
       fx="250.04195"
       cy="150.83105"
       cx="250.04195"
       gradientTransform="matrix(2.5979381,-2.4863058e-6,0,8.2474236e-2,-399.5935,67.126169)"
       gradientUnits="userSpaceOnUse"
       id="radialGradient3323"
       xlink:href="#linearGradient3423-7"
       inkscape:collect="always" />
  </defs>
  <sodipodi:namedview
     id="base"
     pagecolor="#ffffff"
     bordercolor="#666666"
     borderopacity="1.0"
     gridtolerance="10000"
     guidetolerance="10"
     objecttolerance="10"
     inkscape:pageopacity="0.0"
     inkscape:pageshadow="2"
     inkscape:zoom="2.3"
     inkscape:cx="240"
     inkscape:cy="115"
     inkscape:document-units="px"
     inkscape:current-layer="layer1"
     showgrid="true"
     inkscape:snap-global="true"
     showguides="true"
     inkscape:window-width="1280"
     inkscape:window-height="744"
     inkscape:window-x="-4"
     inkscape:window-y="-4"
     inkscape:guide-bbox="true">
    <inkscape:grid
       type="xygrid"
       id="grid2483"
       empspacing="5"
       visible="true"
       enabled="false" />
  </sodipodi:namedview>
  <metadata
     id="metadata7">
    <rdf:RDF>
      <cc:Work
         rdf:about="">
        <dc:format>image/svg+xml</dc:format>
        <dc:type
           rdf:resource="http://purl.org/dc/dcmitype/StillImage" />
        <dc:title>valve2</dc:title>
        <dc:date>2010-01-19</dc:date>
        <dc:publisher>
          <cc:Agent>
            <dc:title>Ecava</dc:title>
          </cc:Agent>
        </dc:publisher>
        <dc:description>no animation</dc:description>
      </cc:Work>
    </rdf:RDF>
  </metadata>
  <g
     inkscape:label="Layer 1"
     inkscape:groupmode="layer"
     id="layer1"
     style="display:inline"
     transform="translate(-10,-50)">
    <g
       id="g2512">
      <path
         sodipodi:nodetypes="cscccccccc"
         id="rect2501-7"
         d="m 315,75 0,11.102399 c 0,12.799977 -18.65837,39.397381 -41.82428,39.397381 l -22.01459,-0.71017 c -23.16591,0 -21.83247,-16.84828 -21.83247,-38.687211 l 0,-11.102399 85.34411,0 c 0.11059,0 0.21686,0.000574 0.32723,0 l 0,0 0,0 z"
         style="opacity:1;fill:#780a0a;fill-opacity:1;stroke:none" />
      <path
         sodipodi:nodetypes="cscccccccc"
         id="rect2501"
         d="m 185,80 0,10.003026 c 0,11.532494 18.51216,35.496194 41.49653,35.496194 l 21.84208,-0.63985 C 271.32299,124.85937 270,109.67943 270,90.003026 L 270,80 185.32467,80 C 185.21494,80 185.1095,80.000517 185,80 l 0,0 0,0 z"
         style="opacity:1;fill:#660c0c;fill-opacity:1;stroke:none" />
      <path
         id="rect2493"
         d="M 37.3125,50 C 22.179731,50 10,58.92 10,70 10,81.08 22.179731,90 37.3125,90 L 120,90 c 0,22.16 29.37366,40 65.875,40 l 128.25,0 C 350.62634,130 380,112.16 380,90 l 82.6875,0 C 477.82027,90 490,81.08 490,70 490,58.92 477.82027,50 462.6875,50 L 314.125,50 185.875,50 37.3125,50 z M 143.875,90 c 0.1045,0.000288 0.20779,0 0.3125,0 L 225,90 l 0,5.59375 c 0,10.98278 1.27761,19.4375 -20.65625,19.4375 l -20.84375,0.375 c -21.93386,0 -39.625,-13.37541 -39.625,-19.8125 L 143.875,90 z M 275,90 l 80.8125,0 c 0.10471,0 0.208,0.000288 0.3125,0 l 0,5.59375 c 0,6.43708 -17.69114,19.8125 -39.625,19.8125 l -20.84375,-0.375 C 273.72239,115.03125 275,106.57652 275,95.59375 L 275,90 z"
         style="opacity:1;fill:url(#linearGradient3431);fill-opacity:1;stroke:none" />
      <rect
         ry="5"
         rx="0"
         y="130"
         x="190"
         height="15"
         width="120"
         id="rect3403"
         style="opacity:1;fill:url(#radialGradient3439);fill-opacity:1;stroke:none" />
      <rect
         rx="0"
         ry="5"
         y="145"
         x="200"
         height="20"
         width="100"
         id="rect3405"
         style="opacity:1;fill:url(#radialGradient3455);fill-opacity:1;stroke:none" />
      <rect
         rx="0"
         ry="5"
         y="165"
         x="210"
         height="115"
         width="80"
         id="rect3407"
         style="opacity:1;fill:url(#radialGradient3447);fill-opacity:1;stroke:none" />
      <rect
         ry="0"
         y="30"
         x="340"
         height="0"
         width="80"
         id="rect3411"
         style="opacity:1;fill:#ff0000;fill-opacity:0.96078431;stroke:#000000;stroke-width:5;stroke-linejoin:miter;stroke-miterlimit:4;stroke-opacity:1;stroke-dasharray:none" />
      <rect
         rx="26.263964"
         ry="17.5"
         y="49.565212"
         x="9.9999905"
         height="40"
         width="480"
         id="rect3409"
         style="opacity:1;fill:url(#radialGradient3323);fill-opacity:1;stroke:none;display:inline" />
      <path
         id="rect3457"
         d="m 38.472167,51.565219 c -10.402921,0 -19.312534,3.2661 -23.472163,8 4.159629,4.73389 13.069242,8 23.472163,8 l 423.055673,0 c 10.40292,0 19.31253,-3.26611 23.47216,-8 -4.15963,-4.7339 -13.06924,-8 -23.47216,-8 l -423.055673,0 z"
         style="opacity:0.29807691;fill:#ececec;fill-opacity:1;stroke:none;display:inline" />
    </g>
  </g>
</svg>
